<svg width="909" height="672" viewBox="0 0 909 672" fill="none" xmlns="http://www.w3.org/2000/svg">
<path 
  class="district special"
  data-name="기장군"
  d="M641.236 255.11C635.779 251.274 631.411 245.244 627.861 237.294C624.311 229.343 612.572 230.164 608.204 229.343C603.836 228.521 599.737 215.913 606.02 204.397C612.302 192.882 616.57 183.218 615.026 170.951C613.66 160.078 586 144.633 586 144.633C586 144.633 589.643 138.876 590.731 130.103C591.819 121.331 603.565 114.201 606.568 106.251C609.57 98.2996 610.388 79.112 620.49 68.4178C630.593 57.7235 607.748 55.2592 614.486 48.3157C621.224 41.3722 640.695 39.7293 654.711 41.1862C654.711 41.1862 661.448 53.7946 683.282 60.0096C705.123 66.2247 708.218 56.5379 715.133 52.5159C722.048 48.494 725.868 51.4233 726.416 42.4649C726.964 33.5065 729.326 33.1423 732.783 26.3848C736.241 19.6196 719.679 18.7129 720.775 10.483C721.863 2.26081 722.773 -0.482495 729.326 0.0677147C735.878 0.617925 747.524 4.26791 752.078 11.9476C756.631 19.6195 761.362 20.906 773.193 17.2482C785.025 13.5905 798.492 10.483 819.06 5.36833C839.627 0.253701 845.995 4.81812 847.631 9.39029C849.267 13.9625 850.363 21.8204 865.829 35.1572C881.303 48.5017 865.104 44.4798 869.835 53.6163C874.565 62.7529 876.101 67.6893 872.698 75.3613C869.294 83.0332 875.114 94.5489 890.402 100.764C905.691 106.979 905.328 109.722 904.418 117.03C903.507 124.338 912.429 121.99 907.513 127.554C902.596 133.118 898.961 128.367 883.125 130.561C867.288 132.754 871.293 106.258 863.105 121.238C854.916 136.218 853.095 121.602 842.359 128.91C842.359 128.91 838.354 132.746 840.175 155.777C841.997 178.801 837.443 178.072 834.534 182.645C831.624 187.217 825.797 185.752 834.348 188.674C842.9 191.595 835.259 201.468 831.439 208.59C827.619 215.719 825.249 219.741 814.514 222.298C803.779 224.856 796.316 233.078 801.409 238.378C806.503 243.679 807.599 240.572 811.967 236.185C816.335 231.799 819.067 230.335 820.704 236.185C822.34 242.036 823.798 269.26 817.431 277.49C811.064 285.712 805.052 286.448 806.873 300.699C808.695 314.951 808.332 318.058 797.952 312.029C787.579 306 790.489 304.721 788.305 311.665C786.12 318.608 786.668 318.608 781.752 324.459C776.836 330.31 775.563 329.396 783.751 330.853C791.94 332.309 788.119 336.153 790.851 345.654C793.583 355.155 787.031 351.505 776.836 355.519C766.641 359.533 775.2 374.986 756.816 378C756.816 378 750.534 375.9 748.535 363.927C746.536 351.954 733.972 345.654 727.149 349.49C720.327 353.326 720.049 361.463 711.135 359.084C702.221 356.705 710.41 333.131 694.843 333.41C679.284 333.681 675.827 340.997 668.726 328.38C668.726 328.38 666.087 324.909 671.551 320.794C677.015 316.679 671.366 309.735 675.827 301.327C680.287 292.919 674.368 289.812 672.099 280.675C669.83 271.538 661.726 264.959 654.263 261.945C646.8 258.93 641.251 255.094 641.251 255.094L641.236 255.11Z" fill="#F0F0F0"/>
<path d="M718.144 172.543H719.306V185.213H718.144V172.543ZM714.434 173.915H715.582C715.582 174.83 715.47 175.712 715.246 176.561C715.031 177.41 714.69 178.218 714.224 178.983C713.757 179.739 713.15 180.444 712.404 181.097C711.657 181.75 710.752 182.334 709.688 182.847L709.072 181.909C710.294 181.321 711.302 180.635 712.096 179.851C712.889 179.067 713.477 178.194 713.86 177.233C714.242 176.262 714.434 175.217 714.434 174.097V173.915ZM709.66 173.915H714.924V174.853H709.66V173.915ZM724.919 173.901H725.871V174.923C725.871 175.707 725.721 176.43 725.423 177.093C725.133 177.756 724.723 178.334 724.191 178.829C723.668 179.324 723.047 179.702 722.329 179.963L721.741 179.039C722.375 178.815 722.931 178.498 723.407 178.087C723.883 177.667 724.251 177.186 724.513 176.645C724.783 176.104 724.919 175.53 724.919 174.923V173.901ZM725.129 173.901H726.081V174.923C726.081 175.474 726.207 175.996 726.459 176.491C726.711 176.986 727.065 177.42 727.523 177.793C727.98 178.166 728.517 178.46 729.133 178.675L728.587 179.585C727.877 179.342 727.266 178.992 726.753 178.535C726.239 178.078 725.838 177.541 725.549 176.925C725.269 176.3 725.129 175.632 725.129 174.923V173.901ZM722.091 173.481H728.867V174.433H722.091V173.481ZM730.463 172.543H731.625V180.173H730.463V172.543ZM731.303 175.763H733.487V176.729H731.303V175.763ZM727.593 180.523C728.451 180.523 729.189 180.616 729.805 180.803C730.43 180.98 730.911 181.242 731.247 181.587C731.583 181.932 731.751 182.352 731.751 182.847C731.751 183.342 731.583 183.762 731.247 184.107C730.911 184.452 730.43 184.718 729.805 184.905C729.189 185.092 728.451 185.185 727.593 185.185C726.734 185.185 725.992 185.092 725.367 184.905C724.741 184.718 724.261 184.452 723.925 184.107C723.589 183.762 723.421 183.342 723.421 182.847C723.421 182.352 723.589 181.932 723.925 181.587C724.261 181.242 724.741 180.98 725.367 180.803C725.992 180.616 726.734 180.523 727.593 180.523ZM727.593 181.447C726.967 181.447 726.426 181.503 725.969 181.615C725.521 181.727 725.175 181.886 724.933 182.091C724.69 182.296 724.569 182.548 724.569 182.847C724.569 183.146 724.69 183.402 724.933 183.617C725.175 183.822 725.521 183.981 725.969 184.093C726.426 184.205 726.967 184.261 727.593 184.261C728.218 184.261 728.755 184.205 729.203 184.093C729.651 183.981 729.996 183.822 730.239 183.617C730.481 183.402 730.603 183.146 730.603 182.847C730.603 182.548 730.481 182.296 730.239 182.091C729.996 181.886 729.651 181.727 729.203 181.615C728.755 181.503 728.218 181.447 727.593 181.447ZM736.132 173.215H744.21V174.167H736.132V173.215ZM734.676 178.129H746.156V179.067H734.676V178.129ZM739.884 178.703H741.032V182.105H739.884V178.703ZM743.524 173.215H744.672V174.223C744.672 174.802 744.653 175.441 744.616 176.141C744.578 176.841 744.457 177.667 744.252 178.619L743.104 178.479C743.309 177.564 743.43 176.766 743.468 176.085C743.505 175.404 743.524 174.783 743.524 174.223V173.215ZM736.118 183.981H744.924V184.933H736.118V183.981ZM736.118 180.971H737.28V184.233H736.118V180.971Z" fill="#CDCDCD"/>
<path 
  class="district special"
  data-name="금정구" 
  d="M470.159 305.937C470.159 305.937 459.951 299.903 453.538 294.231C447.124 288.552 450.478 285.182 453.205 275.959C455.933 266.736 440.811 243.318 437.898 238.353C434.985 233.388 439.536 223.451 446.097 218.305C452.657 213.16 450.107 202.515 450.107 202.515C450.107 202.515 454.751 202.162 461.86 190.449C468.969 178.744 478.535 175.012 485.644 175.012C492.753 175.012 508.879 177.141 521.451 167.565C534.023 157.989 545.413 158.786 558.804 150C558.804 150 586.505 164.992 587.865 175.546C589.411 187.455 585.13 196.836 578.848 208.014C572.566 219.193 576.661 231.432 581.034 232.23C585.408 233.027 597.161 232.23 600.715 239.948C604.27 247.666 608.643 253.519 614.106 257.242C614.106 257.242 608.095 260.169 607.276 267.09C606.457 274.01 605.089 273.213 601.264 273.74C597.439 274.266 598.807 288.732 591.512 291.922C584.226 295.111 576.754 295.646 576.754 295.646C576.754 295.646 573.84 307.712 574.018 312.85C574.204 317.995 559.437 326.865 559.437 326.865C559.437 326.865 548.503 325.27 545.954 320.658C543.404 316.047 542.677 305.049 532.648 305.222C522.618 305.395 513.33 305.222 509.69 301.671C506.043 298.121 501.855 294.224 491.107 298.301C480.358 302.378 470.151 305.929 470.151 305.929L470.159 305.937Z" fill="#F0F0F0"/>
<path d="M505.705 233.677H513.853V234.629H505.705V233.677ZM504.249 238.339H515.729V239.291H504.249V238.339ZM513.097 233.677H514.245V234.615C514.245 235.147 514.227 235.735 514.189 236.379C514.152 237.023 514.031 237.788 513.825 238.675L512.677 238.605C512.883 237.746 513.004 237 513.041 236.365C513.079 235.721 513.097 235.138 513.097 234.615V233.677ZM505.663 241.013H514.287V245.507H505.663V241.013ZM513.139 241.937H506.797V244.555H513.139V241.937ZM523.89 236.295H526.732V237.261H523.89V236.295ZM526.382 233.005H527.544V240.551H526.382V233.005ZM523.372 240.943C524.25 240.943 525.001 241.036 525.626 241.223C526.261 241.41 526.746 241.68 527.082 242.035C527.418 242.38 527.586 242.805 527.586 243.309C527.586 244.056 527.208 244.634 526.452 245.045C525.706 245.456 524.679 245.661 523.372 245.661C522.066 245.661 521.034 245.456 520.278 245.045C519.532 244.634 519.158 244.056 519.158 243.309C519.158 242.805 519.326 242.38 519.662 242.035C520.008 241.68 520.493 241.41 521.118 241.223C521.753 241.036 522.504 240.943 523.372 240.943ZM523.372 241.853C522.738 241.853 522.192 241.909 521.734 242.021C521.277 242.133 520.922 242.296 520.67 242.511C520.428 242.726 520.306 242.992 520.306 243.309C520.306 243.608 520.428 243.864 520.67 244.079C520.922 244.294 521.277 244.462 521.734 244.583C522.192 244.695 522.738 244.751 523.372 244.751C524.016 244.751 524.562 244.695 525.01 244.583C525.468 244.462 525.818 244.294 526.06 244.079C526.312 243.864 526.438 243.608 526.438 243.309C526.438 242.992 526.312 242.726 526.06 242.511C525.818 242.296 525.468 242.133 525.01 242.021C524.562 241.909 524.016 241.853 523.372 241.853ZM520.348 234.293H521.3V235.315C521.3 236.09 521.151 236.818 520.852 237.499C520.563 238.171 520.152 238.764 519.62 239.277C519.088 239.781 518.472 240.168 517.772 240.439L517.17 239.515C517.646 239.347 518.076 239.118 518.458 238.829C518.85 238.54 519.186 238.208 519.466 237.835C519.756 237.462 519.975 237.06 520.124 236.631C520.274 236.202 520.348 235.763 520.348 235.315V234.293ZM520.572 234.293H521.524V235.301C521.524 235.842 521.65 236.37 521.902 236.883C522.154 237.396 522.514 237.849 522.98 238.241C523.447 238.633 523.984 238.941 524.59 239.165L524.002 240.089C523.312 239.837 522.71 239.473 522.196 238.997C521.683 238.512 521.282 237.952 520.992 237.317C520.712 236.682 520.572 236.01 520.572 235.301V234.293ZM517.534 233.929H524.296V234.881H517.534V233.929ZM531.435 233.831H539.359V234.769H531.435V233.831ZM530.007 239.263H541.445V240.229H530.007V239.263ZM535.117 239.907H536.279V245.689H535.117V239.907ZM538.799 233.831H539.947V234.937C539.947 235.376 539.938 235.838 539.919 236.323C539.91 236.808 539.872 237.345 539.807 237.933C539.742 238.512 539.63 239.156 539.471 239.865L538.309 239.711C538.561 238.694 538.706 237.802 538.743 237.037C538.78 236.272 538.799 235.572 538.799 234.937V233.831Z" fill="#CDCDCD"/>
<path 
  class="district special"
  data-name="해운대구" 
  d="M569.201 371.789C569.201 371.789 569.186 371.721 569.163 371.6C568.823 369.829 566.356 355.95 567.16 340.843L567.284 340.768C567.284 340.768 582.052 331.88 581.874 326.724C581.688 321.568 584.611 309.484 584.611 309.484C584.611 309.484 592.087 308.948 599.378 305.752C606.669 302.556 605.301 288.067 609.136 287.532C612.963 286.997 614.331 287.796 615.151 280.868C615.971 273.932 621.986 271 621.986 271C621.986 271 627.545 274.732 635.021 277.664C642.498 280.596 650.609 286.997 652.889 295.884C655.17 304.772 661.093 307.795 656.624 315.974C652.155 324.153 657.807 330.908 652.341 334.911C646.874 338.914 649.511 342.291 649.511 342.291C656.624 354.556 660.088 347.447 675.675 347.183C691.262 346.919 683.059 369.851 691.996 372.158C700.934 374.472 701.205 366.557 708.04 362.826C714.875 359.094 727.462 365.223 729.464 376.87C731.467 388.516 737.76 390.559 737.76 390.559C737.76 390.559 733.392 392.369 721.354 395.565C709.323 398.761 707.955 400.54 709.045 409.074C710.135 417.607 712.053 425.251 696.102 430.852C680.151 436.453 681.968 448.093 671.399 444.542C671.399 444.542 666.93 442.853 662.918 437.516C662.918 437.516 654.072 432.714 648.15 437.961C642.227 443.208 641.586 446.585 633.29 447.384C624.993 448.183 621.8 448.364 616.883 443.381" fill="#559DD5"/>
<path d="M608.619 373.368H614.905V374.32H608.619V373.368ZM611.769 375.16C612.301 375.16 612.767 375.281 613.169 375.524C613.579 375.767 613.901 376.107 614.135 376.546C614.368 376.975 614.485 377.475 614.485 378.044C614.485 378.613 614.368 379.117 614.135 379.556C613.901 379.985 613.579 380.326 613.169 380.578C612.767 380.821 612.301 380.942 611.769 380.942C611.246 380.942 610.779 380.821 610.369 380.578C609.958 380.326 609.636 379.985 609.403 379.556C609.169 379.117 609.053 378.613 609.053 378.044C609.053 377.475 609.169 376.975 609.403 376.546C609.636 376.117 609.958 375.781 610.369 375.538C610.779 375.286 611.246 375.16 611.769 375.16ZM611.769 376.14C611.451 376.14 611.162 376.224 610.901 376.392C610.649 376.551 610.448 376.775 610.299 377.064C610.159 377.344 610.089 377.671 610.089 378.044C610.089 378.417 610.159 378.749 610.299 379.038C610.448 379.327 610.649 379.551 610.901 379.71C611.162 379.869 611.451 379.948 611.769 379.948C612.095 379.948 612.385 379.869 612.637 379.71C612.889 379.551 613.085 379.327 613.225 379.038C613.374 378.749 613.449 378.417 613.449 378.044C613.449 377.671 613.374 377.344 613.225 377.064C613.085 376.775 612.889 376.551 612.637 376.392C612.385 376.224 612.095 376.14 611.769 376.14ZM618.251 371.198H619.357V383.868H618.251V371.198ZM616.221 376.532H618.615V377.484H616.221V376.532ZM615.535 371.492H616.627V383.252H615.535V371.492ZM611.195 371.576H612.343V373.942H611.195V371.576ZM621.512 377.624H632.992V378.576H621.512V377.624ZM626.762 378.226H627.938V381.138H626.762V378.226ZM622.982 382.622H631.718V383.588H622.982V382.622ZM622.982 379.892H624.144V382.888H622.982V379.892ZM627.238 371.52C628.134 371.52 628.913 371.623 629.576 371.828C630.238 372.033 630.752 372.327 631.116 372.71C631.489 373.083 631.676 373.536 631.676 374.068C631.676 374.581 631.489 375.029 631.116 375.412C630.752 375.795 630.238 376.089 629.576 376.294C628.913 376.499 628.134 376.602 627.238 376.602C626.351 376.602 625.572 376.499 624.9 376.294C624.237 376.089 623.719 375.795 623.346 375.412C622.982 375.029 622.8 374.581 622.8 374.068C622.8 373.536 622.982 373.083 623.346 372.71C623.719 372.327 624.237 372.033 624.9 371.828C625.572 371.623 626.351 371.52 627.238 371.52ZM627.238 372.458C626.603 372.458 626.043 372.523 625.558 372.654C625.072 372.785 624.694 372.971 624.424 373.214C624.162 373.447 624.032 373.732 624.032 374.068C624.032 374.395 624.162 374.679 624.424 374.922C624.694 375.155 625.072 375.337 625.558 375.468C626.043 375.589 626.603 375.65 627.238 375.65C627.891 375.65 628.456 375.589 628.932 375.468C629.408 375.337 629.776 375.155 630.038 374.922C630.308 374.679 630.444 374.395 630.444 374.068C630.444 373.732 630.308 373.447 630.038 373.214C629.776 372.971 629.408 372.785 628.932 372.654C628.456 372.523 627.891 372.458 627.238 372.458ZM644.037 371.198H645.143V383.868H644.037V371.198ZM641.895 376.28H644.331V377.232H641.895V376.28ZM641.167 371.478H642.245V383.21H641.167V371.478ZM634.853 379.766H635.679C636.304 379.766 636.869 379.761 637.373 379.752C637.886 379.733 638.371 379.696 638.829 379.64C639.295 379.584 639.771 379.505 640.257 379.402L640.369 380.368C639.865 380.471 639.375 380.55 638.899 380.606C638.432 380.662 637.937 380.699 637.415 380.718C636.901 380.737 636.323 380.746 635.679 380.746H634.853V379.766ZM634.853 372.738H639.557V373.69H636.015V380.214H634.853V372.738ZM648.711 372.024H656.635V372.962H648.711V372.024ZM647.283 377.456H658.721V378.422H647.283V377.456ZM652.393 378.1H653.555V383.882H652.393V378.1ZM656.075 372.024H657.223V373.13C657.223 373.569 657.214 374.031 657.195 374.516C657.186 375.001 657.149 375.538 657.083 376.126C657.018 376.705 656.906 377.349 656.747 378.058L655.585 377.904C655.837 376.887 655.982 375.995 656.019 375.23C656.057 374.465 656.075 373.765 656.075 373.13V372.024Z" fill="white"/>
<path 
  class="district special"
  data-name="남구"
  d="M528.285 458.582C536.812 460.85 537.496 468.578 539.555 477.904C541.615 487.23 549.326 491.064 550.554 491.493C552.171 492.058 559.352 492.556 561 496.42C562.648 500.284 566.363 503.215 569.954 501.881C573.545 500.548 578.186 509.339 580.937 516.006C583.689 522.672 580.385 527.463 585.608 532.322C590.832 537.181 590.832 539.184 588.08 545.715C585.329 552.246 583.541 552.111 582.997 560.103C582.453 568.096 573.234 568.766 566.091 568.367C558.941 567.968 555.505 562.905 553.033 559.305C550.562 555.704 548.774 558.371 546.434 562.77C544.095 567.169 540.519 568.096 533.096 565.7C525.673 563.305 528.969 555.305 528.277 550.913C527.586 546.521 524.438 541.587 516.743 544.118C509.048 546.649 498.873 552.909 486.911 546.913C474.949 540.917 482.24 534.921 479.488 531.192C476.737 527.463 469.508 531.192 469.508 531.192L468.063 528.525C466.764 526.717 468.164 524.759 469.384 523.554C470.627 522.326 471.552 520.827 472.05 519.177C474.405 511.29 474.125 497.798 472.4 493.821C470.41 489.226 469.858 485.098 469.858 485.098C469.858 485.098 474.529 478.567 478.245 478.168C481.96 477.768 494.606 477.369 498.182 473.241C501.726 469.143 504.874 466.74 510.424 457.595C510.61 457.58 516.914 457.143 528.285 458.582Z" fill="white" stroke="#559DD5" stroke-miterlimit="10"/>
<path d="M520.917 508.098H522.079V515.252H520.917V508.098ZM521.771 510.996H523.955V511.962H521.771V510.996ZM514.099 515.938H522.079V520.572H514.099V515.938ZM520.945 516.862H515.233V519.634H520.945V516.862ZM512.853 508.728H514.015V513.796H512.853V508.728ZM512.853 513.32H513.861C514.776 513.32 515.709 513.283 516.661 513.208C517.613 513.124 518.602 512.975 519.629 512.76L519.769 513.726C518.705 513.941 517.688 514.09 516.717 514.174C515.756 514.249 514.804 514.286 513.861 514.286H512.853V513.32ZM526.558 508.91H534.482V509.848H526.558V508.91ZM525.13 514.342H536.568V515.308H525.13V514.342ZM530.24 514.986H531.402V520.768H530.24V514.986ZM533.922 508.91H535.07V510.016C535.07 510.455 535.061 510.917 535.042 511.402C535.033 511.887 534.995 512.424 534.93 513.012C534.865 513.591 534.753 514.235 534.594 514.944L533.432 514.79C533.684 513.773 533.829 512.881 533.866 512.116C533.903 511.351 533.922 510.651 533.922 510.016V508.91Z" fill="#559DD5"/>
<path 
  class="district special"
  data-name="남구"
  d="M558.549 388.593C535.166 382.067 529.684 384.814 519.152 386.274C508.621 387.742 508.35 378.017 501.507 377.219C494.672 376.421 480.173 390.001 468.134 392.793C457.085 395.36 443.878 378.762 441.782 376.022C443.306 378.423 451.347 391.122 451.718 391.724C455.561 397.957 458.283 403.437 466.99 404.243C475.696 405.04 476.06 404.905 480.846 412.5C485.632 420.088 493.976 414.495 498.901 418.093C503.827 421.691 506.425 432.207 505.876 434.066C505.327 435.933 501.638 438.192 501.638 438.192C506.564 443.92 511.072 447.247 511.072 447.247C511.072 447.247 517.374 446.765 528.864 448.233C528.864 448.233 528.593 441.443 532.143 436.919C535.699 432.395 529.544 425.869 538.297 422.143C547.05 418.417 546.641 411.89 555.394 410.829L564.147 409.768C564.147 409.768 561.131 402.255 558.541 388.6L558.549 388.593Z" fill="#F0F0F0"/>
<path d="M503.076 401.362H506.884V402.314H503.076V401.362ZM503.076 404.386H506.884V405.338H503.076V404.386ZM506.478 399.388H507.64V408.74H506.478V399.388ZM499.562 410.812H507.99V411.764H499.562V410.812ZM499.562 407.774H500.71V411.218H499.562V407.774ZM500.682 400.186C501.298 400.186 501.848 400.321 502.334 400.592C502.828 400.863 503.216 401.236 503.496 401.712C503.785 402.188 503.93 402.734 503.93 403.35C503.93 403.975 503.785 404.526 503.496 405.002C503.216 405.478 502.828 405.851 502.334 406.122C501.848 406.393 501.298 406.528 500.682 406.528C500.056 406.528 499.496 406.393 499.002 406.122C498.516 405.851 498.129 405.478 497.84 405.002C497.56 404.526 497.42 403.975 497.42 403.35C497.42 402.734 497.56 402.188 497.84 401.712C498.129 401.236 498.516 400.863 499.002 400.592C499.496 400.321 500.056 400.186 500.682 400.186ZM500.682 401.222C500.271 401.222 499.902 401.315 499.576 401.502C499.249 401.679 498.992 401.931 498.806 402.258C498.619 402.575 498.526 402.944 498.526 403.364C498.526 403.775 498.619 404.143 498.806 404.47C498.992 404.797 499.249 405.053 499.576 405.24C499.902 405.417 500.271 405.506 500.682 405.506C501.083 405.506 501.447 405.417 501.774 405.24C502.1 405.053 502.357 404.797 502.544 404.47C502.73 404.143 502.824 403.775 502.824 403.364C502.824 402.944 502.73 402.575 502.544 402.258C502.357 401.931 502.1 401.679 501.774 401.502C501.447 401.315 501.083 401.222 500.682 401.222ZM519.735 399.374H520.841V412.044H519.735V399.374ZM515.115 403.924H517.551V404.876H515.115V403.924ZM517.201 399.668H518.293V411.386H517.201V399.668ZM512.693 401.348H513.589V402.958C513.589 403.649 513.523 404.325 513.393 404.988C513.262 405.641 513.071 406.257 512.819 406.836C512.567 407.405 512.259 407.923 511.895 408.39C511.531 408.847 511.12 409.221 510.663 409.51L509.949 408.642C510.537 408.287 511.031 407.811 511.433 407.214C511.843 406.617 512.156 405.949 512.371 405.212C512.585 404.475 512.693 403.723 512.693 402.958V401.348ZM512.931 401.348H513.813V402.958C513.813 403.686 513.915 404.4 514.121 405.1C514.335 405.8 514.639 406.435 515.031 407.004C515.432 407.564 515.922 408.012 516.501 408.348L515.801 409.216C515.185 408.833 514.662 408.325 514.233 407.69C513.813 407.046 513.491 406.318 513.267 405.506C513.043 404.685 512.931 403.835 512.931 402.958V401.348ZM510.299 400.858H516.081V401.81H510.299V400.858ZM524.41 400.2H532.334V401.138H524.41V400.2ZM522.982 405.632H534.42V406.598H522.982V405.632ZM528.092 406.276H529.254V412.058H528.092V406.276ZM531.774 400.2H532.922V401.306C532.922 401.745 532.912 402.207 532.894 402.692C532.884 403.177 532.847 403.714 532.782 404.302C532.716 404.881 532.604 405.525 532.446 406.234L531.284 406.08C531.536 405.063 531.68 404.171 531.718 403.406C531.755 402.641 531.774 401.941 531.774 401.306V400.2Z" fill="#CDCDCD"/>
<path 
  class="district special"
  data-name="동래구"
  d="M556.667 347.787C556.667 347.787 545.718 346.189 543.165 341.567C540.611 336.946 539.884 325.923 529.84 326.097C519.796 326.27 510.495 326.097 506.851 322.538C503.206 318.979 499.004 315.074 488.241 319.16C477.477 323.247 467.256 326.805 467.256 326.805C467.256 326.805 461.143 355.877 441.782 365.889C441.782 365.889 456.399 385.876 468.447 383.079C480.487 380.282 494.996 366.681 501.844 367.48C508.692 368.279 508.963 378.012 519.502 376.55C530.041 375.079 535.38 372.147 558.78 378.683C558.78 378.683 555.808 363.974 556.683 347.795L556.667 347.787Z" fill="#F0F0F0"/>
<path d="M482.197 350.152H493.649V351.09H482.197V350.152ZM487.349 348.122H488.483V350.544H487.349V348.122ZM483.639 347.758H492.305V348.696H483.639V347.758ZM483.639 344.496H492.221V345.42H484.787V348.318H483.639V344.496ZM487.909 352C489.262 352 490.322 352.201 491.087 352.602C491.852 352.994 492.235 353.554 492.235 354.282C492.235 355.01 491.852 355.57 491.087 355.962C490.322 356.363 489.262 356.564 487.909 356.564C486.556 356.564 485.492 356.363 484.717 355.962C483.952 355.57 483.569 355.01 483.569 354.282C483.569 353.554 483.952 352.994 484.717 352.602C485.492 352.201 486.556 352 487.909 352ZM487.895 352.91C487.242 352.91 486.677 352.966 486.201 353.078C485.734 353.181 485.375 353.335 485.123 353.54C484.871 353.736 484.745 353.983 484.745 354.282C484.745 354.571 484.871 354.819 485.123 355.024C485.375 355.229 485.734 355.383 486.201 355.486C486.677 355.598 487.242 355.654 487.895 355.654C488.567 355.654 489.136 355.598 489.603 355.486C490.079 355.383 490.443 355.229 490.695 355.024C490.947 354.819 491.073 354.571 491.073 354.282C491.073 353.983 490.947 353.736 490.695 353.54C490.443 353.335 490.079 353.181 489.603 353.078C489.136 352.966 488.567 352.91 487.895 352.91ZM495.496 352.574H496.322C497.097 352.574 497.853 352.555 498.59 352.518C499.327 352.471 500.121 352.378 500.97 352.238L501.082 353.19C500.205 353.349 499.388 353.451 498.632 353.498C497.885 353.535 497.115 353.554 496.322 353.554H495.496V352.574ZM495.468 345.28H500.2V349.732H496.616V352.938H495.496V348.78H499.08V346.246H495.468V345.28ZM504.708 343.908H505.814V356.578H504.708V343.908ZM502.566 348.906H505.002V349.858H502.566V348.906ZM501.838 344.188H502.916V355.92H501.838V344.188ZM509.383 344.734H517.307V345.672H509.383V344.734ZM507.955 350.166H519.393V351.132H507.955V350.166ZM513.065 350.81H514.227V356.592H513.065V350.81ZM516.747 344.734H517.895V345.84C517.895 346.279 517.885 346.741 517.867 347.226C517.857 347.711 517.82 348.248 517.755 348.836C517.689 349.415 517.577 350.059 517.419 350.768L516.257 350.614C516.509 349.597 516.653 348.705 516.691 347.94C516.728 347.175 516.747 346.475 516.747 345.84V344.734Z" fill="#CDCDCD"/>
<path
  class="district special"
  data-name="북구"
  d="M385.651 376.258C372.888 384.544 342.507 363.245 340.853 362.071C340.883 362.048 340.914 362.033 340.945 362.01C340.945 362.01 336.57 342.577 340.945 330.061C345.321 317.545 340.945 299.534 340.945 299.534C340.945 299.534 357.535 291.549 359.537 283.029C361.54 274.509 361.176 267.058 369.564 258.357C377.952 249.657 377.588 245.578 376.854 239.368C376.12 233.159 375.578 225.527 384.329 223.036C393.081 220.552 411.309 217.888 427.35 217C427.35 217 429.902 227.65 423.338 232.798C416.775 237.946 412.214 247.888 415.136 252.856C418.058 257.823 433.187 281.253 430.45 290.48C427.714 299.707 424.366 303.079 430.783 308.761C437.199 314.444 447.411 320.472 447.411 320.472C447.411 320.472 441.304 349.494 421.962 359.489C410.799 365.262 385.659 376.25 385.659 376.25L385.651 376.258Z" fill="#F0F0F0"/>
<path d="M383.48 318.349H384.628V320.519H383.48V318.349ZM378.342 317.719H389.78V318.657H378.342V317.719ZM379.616 320.127H388.366V324.187H387.204V321.079H379.616V320.127ZM379.854 311.811H381.002V313.253H387.134V311.811H388.282V316.557H379.854V311.811ZM381.002 314.149V315.619H387.134V314.149H381.002ZM392.649 312.343H400.573V313.281H392.649V312.343ZM391.221 317.775H402.659V318.741H391.221V317.775ZM396.331 318.419H397.493V324.201H396.331V318.419ZM400.013 312.343H401.161V313.449C401.161 313.888 401.152 314.35 401.133 314.835C401.124 315.321 401.087 315.857 401.021 316.445C400.956 317.024 400.844 317.668 400.685 318.377L399.523 318.223C399.775 317.206 399.92 316.315 399.957 315.549C399.995 314.784 400.013 314.084 400.013 313.449V312.343Z" fill="#CDCDCD"/>
<path 
  class="district special"
  data-name="부산진구"
  d="M381.039 483.932C381.039 483.932 386.355 461.57 388.127 454.028C389.899 446.487 381.178 426.503 381.586 425.448C381.994 424.394 391.533 394.617 391.533 394.617C391.533 394.617 416.55 383.813 427.637 378C427.637 378 437.375 393.337 437.784 393.996C441.613 400.19 444.325 405.637 453.001 406.438C461.676 407.238 462.038 407.096 466.807 414.645C471.576 422.186 479.89 416.628 484.798 420.204C489.706 423.78 492.294 434.232 491.747 436.08C491.2 437.928 487.525 440.18 487.525 440.18C492.433 445.873 496.925 449.18 496.925 449.18C491.339 458.442 488.203 460.821 484.659 464.929C481.115 469.029 468.579 469.425 464.897 469.822C461.214 470.218 456.583 476.705 456.583 476.705C456.583 476.705 454.403 476.967 448.678 477.498C442.954 478.029 441.729 475.777 437.368 475.246C433.007 474.715 421.966 476.832 421.966 476.832C417.336 486.887 408.067 492.05 402.751 494.564C397.435 497.077 397.658 501.492 397.658 501.492C397.658 501.492 390.146 492.125 381 484.104" fill="#F0F0F0"/>
<path d="M408.521 441.299H420.001V442.237H408.521V441.299ZM413.659 441.733H414.807V446.465H413.659V441.733ZM409.977 434.313H411.125V436.049H417.383V434.313H418.545V439.787H409.977V434.313ZM411.125 436.987V438.835H417.383V436.987H411.125ZM424.522 434.565H425.488V436.119C425.488 436.949 425.344 437.715 425.054 438.415C424.765 439.105 424.359 439.707 423.836 440.221C423.314 440.734 422.698 441.126 421.988 441.397L421.358 440.473C422.002 440.249 422.562 439.922 423.038 439.493C423.514 439.054 423.878 438.545 424.13 437.967C424.392 437.388 424.522 436.772 424.522 436.119V434.565ZM424.732 434.565H425.67V436.161C425.67 436.59 425.745 437.01 425.894 437.421C426.053 437.831 426.268 438.219 426.538 438.583C426.818 438.937 427.145 439.25 427.518 439.521C427.901 439.782 428.326 439.997 428.792 440.165L428.204 441.089C427.514 440.827 426.907 440.454 426.384 439.969C425.862 439.483 425.456 438.914 425.166 438.261C424.877 437.607 424.732 436.907 424.732 436.161V434.565ZM430.08 433.795H431.242V443.147H430.08V433.795ZM430.878 437.673H433.104V438.653H430.878V437.673ZM423.374 445.233H431.802V446.185H423.374V445.233ZM423.374 442.251H424.55V445.695H423.374V442.251ZM437.667 435.181H438.633V436.483C438.633 437.257 438.484 437.976 438.185 438.639C437.886 439.301 437.466 439.885 436.925 440.389C436.393 440.883 435.772 441.257 435.063 441.509L434.461 440.599C435.096 440.365 435.651 440.043 436.127 439.633C436.612 439.222 436.99 438.746 437.261 438.205C437.532 437.654 437.667 437.08 437.667 436.483V435.181ZM437.891 435.181H438.843V436.483C438.843 436.912 438.918 437.327 439.067 437.729C439.226 438.121 439.45 438.489 439.739 438.835C440.028 439.171 440.364 439.469 440.747 439.731C441.139 439.992 441.568 440.197 442.035 440.347L441.447 441.257C440.747 441.014 440.131 440.659 439.599 440.193C439.067 439.726 438.647 439.175 438.339 438.541C438.04 437.906 437.891 437.22 437.891 436.483V435.181ZM434.769 434.845H441.699V435.797H434.769V434.845ZM443.505 433.809H444.667V443.077H443.505V433.809ZM436.533 445.233H445.059V446.185H436.533V445.233ZM436.533 442.209H437.695V445.653H436.533V442.209ZM448.6 434.621H456.524V435.559H448.6V434.621ZM447.172 440.053H458.61V441.019H447.172V440.053ZM452.282 440.697H453.444V446.479H452.282V440.697ZM455.964 434.621H457.112V435.727C457.112 436.165 457.103 436.627 457.084 437.113C457.075 437.598 457.037 438.135 456.972 438.723C456.907 439.301 456.795 439.945 456.636 440.655L455.474 440.501C455.726 439.483 455.871 438.592 455.908 437.827C455.945 437.061 455.964 436.361 455.964 435.727V434.621Z" fill="#CDCDCD"/>
<path 
  class="district special"
  data-name="영도구"
  d="M441.872 591.687C445.445 588.152 475.535 588.779 475.535 588.779C474.603 579.828 487.364 568.875 487.364 568.875C487.364 568.875 509.566 587.238 532.724 614.582C532.724 614.582 534.611 619.991 534.496 628.511C534.457 631.042 535.235 633.512 536.667 635.612C538.677 638.542 542.089 642.629 547.257 646.104C555.659 651.761 554.35 658.001 550.507 666.159C549.629 668.017 547.904 669.339 545.863 669.769C542.721 670.426 537.407 670.895 529.952 669.384C528.15 669.021 526.471 668.213 525.031 667.088C520.002 663.129 507.002 653.257 500.217 651.278C491.684 648.785 500.764 643.082 490.413 635.068C480.063 627.053 450.636 616.01 447.186 607.633C447.186 607.633 446.685 600.064 444.283 595.88L441.88 591.695L441.872 591.687Z" fill="white" stroke="#559DD5" stroke-miterlimit="10"/>
<path d="M482.687 607.667H486.537V608.605H482.687V607.667ZM482.687 610.579H486.537V611.531H482.687V610.579ZM480.377 606.589C480.993 606.589 481.544 606.72 482.029 606.981C482.524 607.233 482.911 607.588 483.191 608.045C483.48 608.493 483.625 609.011 483.625 609.599C483.625 610.187 483.48 610.71 483.191 611.167C482.911 611.615 482.524 611.97 482.029 612.231C481.544 612.483 480.993 612.609 480.377 612.609C479.752 612.609 479.192 612.483 478.697 612.231C478.212 611.97 477.824 611.615 477.535 611.167C477.255 610.71 477.115 610.187 477.115 609.599C477.115 609.011 477.255 608.493 477.535 608.045C477.824 607.588 478.212 607.233 478.697 606.981C479.192 606.72 479.752 606.589 480.377 606.589ZM480.377 607.583C479.966 607.583 479.598 607.667 479.271 607.835C478.944 608.003 478.688 608.241 478.501 608.549C478.314 608.848 478.221 609.198 478.221 609.599C478.221 609.991 478.314 610.341 478.501 610.649C478.688 610.948 478.944 611.186 479.271 611.363C479.598 611.531 479.966 611.615 480.377 611.615C480.788 611.615 481.152 611.531 481.469 611.363C481.796 611.186 482.052 610.948 482.239 610.649C482.426 610.341 482.519 609.991 482.519 609.599C482.519 609.198 482.426 608.848 482.239 608.549C482.052 608.241 481.796 608.003 481.469 607.835C481.152 607.667 480.788 607.583 480.377 607.583ZM486.173 605.833H487.335V613.323H486.173V605.833ZM483.163 613.631C484.04 613.631 484.792 613.729 485.417 613.925C486.042 614.112 486.523 614.387 486.859 614.751C487.204 615.106 487.377 615.54 487.377 616.053C487.377 616.557 487.204 616.991 486.859 617.355C486.523 617.719 486.042 617.994 485.417 618.181C484.792 618.377 484.04 618.475 483.163 618.475C482.295 618.475 481.544 618.377 480.909 618.181C480.284 617.994 479.798 617.719 479.453 617.355C479.117 616.991 478.949 616.557 478.949 616.053C478.949 615.54 479.117 615.106 479.453 614.751C479.798 614.387 480.284 614.112 480.909 613.925C481.544 613.729 482.295 613.631 483.163 613.631ZM483.163 614.541C482.528 614.541 481.978 614.602 481.511 614.723C481.054 614.844 480.699 615.017 480.447 615.241C480.204 615.465 480.083 615.736 480.083 616.053C480.083 616.361 480.204 616.627 480.447 616.851C480.699 617.075 481.054 617.248 481.511 617.369C481.978 617.49 482.528 617.551 483.163 617.551C483.807 617.551 484.358 617.49 484.815 617.369C485.272 617.248 485.622 617.075 485.865 616.851C486.117 616.627 486.243 616.361 486.243 616.053C486.243 615.736 486.117 615.465 485.865 615.241C485.622 615.017 485.272 614.844 484.815 614.723C484.358 614.602 483.807 614.541 483.163 614.541ZM491.254 611.755H499.948V612.693H491.254V611.755ZM489.798 615.941H501.278V616.907H489.798V615.941ZM494.936 612.161H496.084V616.319H494.936V612.161ZM491.254 606.841H499.822V607.807H492.416V612.175H491.254V606.841ZM504.105 606.659H512.029V607.597H504.105V606.659ZM502.677 612.091H514.115V613.057H502.677V612.091ZM507.787 612.735H508.949V618.517H507.787V612.735ZM511.469 606.659H512.617V607.765C512.617 608.204 512.608 608.666 512.589 609.151C512.58 609.636 512.542 610.173 512.477 610.761C512.412 611.34 512.3 611.984 512.141 612.693L510.979 612.539C511.231 611.522 511.376 610.63 511.413 609.865C511.45 609.1 511.469 608.4 511.469 607.765V606.659Z" fill="#559DD5"/>
<path 
  class="district special"
  data-name="중구"
  d="M435.571 584.612C439.159 581.104 469.376 581.958 469.376 581.958C468.44 573.076 481.256 562.207 481.256 562.207C475.509 553.324 476.608 545.904 476.608 545.904C459.368 537.418 434.89 540.574 434.89 540.574C429.785 541.631 422.856 547.995 419.979 556.128C417.102 564.261 420.845 564.613 427.597 573.098C434.349 581.583 432.523 586.883 432.523 586.883C432.523 586.883 431.99 588.12 435.578 584.612H435.571Z" fill="#F0F0F0"/>
<path d="M443.086 562.354H444.234V564.566H443.086V562.354ZM437.948 561.948H449.386V562.9H437.948V561.948ZM443.66 564.216C445.013 564.216 446.072 564.408 446.838 564.79C447.603 565.173 447.986 565.724 447.986 566.442C447.986 567.152 447.603 567.698 446.838 568.08C446.072 568.472 445.013 568.668 443.66 568.668C442.306 568.668 441.242 568.472 440.468 568.08C439.702 567.698 439.32 567.152 439.32 566.442C439.32 565.724 439.702 565.173 440.468 564.79C441.242 564.408 442.306 564.216 443.66 564.216ZM443.66 565.126C442.997 565.126 442.428 565.178 441.952 565.28C441.485 565.383 441.126 565.532 440.874 565.728C440.622 565.924 440.496 566.162 440.496 566.442C440.496 566.722 440.622 566.96 440.874 567.156C441.126 567.352 441.485 567.502 441.952 567.604C442.428 567.716 442.997 567.772 443.66 567.772C444.322 567.772 444.887 567.716 445.354 567.604C445.83 567.502 446.194 567.352 446.446 567.156C446.698 566.96 446.824 566.722 446.824 566.442C446.824 566.162 446.698 565.924 446.446 565.728C446.194 565.532 445.83 565.383 445.354 565.28C444.887 565.178 444.322 565.126 443.66 565.126ZM442.918 557.076H443.94V557.454C443.94 557.865 443.851 558.243 443.674 558.588C443.506 558.934 443.268 559.256 442.96 559.554C442.652 559.844 442.288 560.1 441.868 560.324C441.457 560.548 441.009 560.735 440.524 560.884C440.038 561.024 439.53 561.127 438.998 561.192L438.578 560.268C439.035 560.222 439.474 560.142 439.894 560.03C440.323 559.909 440.72 559.764 441.084 559.596C441.457 559.419 441.779 559.218 442.05 558.994C442.32 558.77 442.53 558.528 442.68 558.266C442.838 558.005 442.918 557.734 442.918 557.454V557.076ZM443.394 557.076H444.416V557.454C444.416 557.744 444.49 558.019 444.64 558.28C444.798 558.532 445.013 558.77 445.284 558.994C445.554 559.209 445.872 559.405 446.236 559.582C446.609 559.75 447.006 559.895 447.426 560.016C447.855 560.138 448.298 560.222 448.756 560.268L448.336 561.192C447.804 561.127 447.295 561.024 446.81 560.884C446.324 560.735 445.872 560.548 445.452 560.324C445.041 560.1 444.682 559.844 444.374 559.554C444.066 559.265 443.823 558.943 443.646 558.588C443.478 558.234 443.394 557.856 443.394 557.454V557.076ZM438.998 556.614H448.35V557.552H438.998V556.614ZM452.255 556.852H460.179V557.79H452.255V556.852ZM450.827 562.284H462.265V563.25H450.827V562.284ZM455.937 562.928H457.099V568.71H455.937V562.928ZM459.619 556.852H460.767V557.958C460.767 558.397 460.757 558.859 460.739 559.344C460.729 559.83 460.692 560.366 460.627 560.954C460.561 561.533 460.449 562.177 460.291 562.886L459.129 562.732C459.381 561.715 459.525 560.824 459.563 560.058C459.6 559.293 459.619 558.593 459.619 557.958V556.852Z" fill="#CDCDCD"/>
<path 
  class="district special"
  data-name="동구"
  d="M452.81 536.42C435.536 527.939 411.009 531.093 411.009 531.093C410.962 531.1 410.916 531.123 410.869 531.13C410.156 529.864 406.638 523.968 402.236 522.552C397.3 520.963 402.05 510.714 402.236 508.414V508.294C402.236 508.294 402.097 503.948 407.444 501.431C412.791 498.913 422.106 493.744 426.772 483.674C426.772 483.674 437.877 481.554 442.263 482.086C446.649 482.618 447.881 484.865 453.639 484.341C459.397 483.816 461.591 483.547 461.591 483.547C461.591 483.547 462.141 487.652 464.125 492.223C465.845 496.179 466.124 509.597 463.776 517.442C463.28 519.083 462.358 520.574 461.118 521.795C459.878 523.016 458.506 524.949 459.8 526.74L461.242 529.392C461.242 529.392 454.453 533.565 452.81 536.413V536.42Z" fill="#F0F0F0"/>
<path d="M425.388 511.597H436.84V512.535H425.388V511.597ZM430.54 509.567H431.674V511.989H430.54V509.567ZM426.83 509.203H435.496V510.141H426.83V509.203ZM426.83 505.941H435.412V506.865H427.978V509.763H426.83V505.941ZM431.1 513.445C432.453 513.445 433.512 513.645 434.278 514.047C435.043 514.439 435.426 514.999 435.426 515.727C435.426 516.455 435.043 517.015 434.278 517.407C433.512 517.808 432.453 518.009 431.1 518.009C429.746 518.009 428.682 517.808 427.908 517.407C427.142 517.015 426.76 516.455 426.76 515.727C426.76 514.999 427.142 514.439 427.908 514.047C428.682 513.645 429.746 513.445 431.1 513.445ZM431.086 514.355C430.432 514.355 429.868 514.411 429.392 514.523C428.925 514.625 428.566 514.779 428.314 514.985C428.062 515.181 427.936 515.428 427.936 515.727C427.936 516.016 428.062 516.263 428.314 516.469C428.566 516.674 428.925 516.828 429.392 516.931C429.868 517.043 430.432 517.099 431.086 517.099C431.758 517.099 432.327 517.043 432.794 516.931C433.27 516.828 433.634 516.674 433.886 516.469C434.138 516.263 434.264 516.016 434.264 515.727C434.264 515.428 434.138 515.181 433.886 514.985C433.634 514.779 433.27 514.625 432.794 514.523C432.327 514.411 431.758 514.355 431.086 514.355ZM439.695 506.179H447.619V507.117H439.695V506.179ZM438.267 511.611H449.705V512.577H438.267V511.611ZM443.377 512.255H444.539V518.037H443.377V512.255ZM447.059 506.179H448.207V507.285C448.207 507.723 448.197 508.185 448.179 508.671C448.169 509.156 448.132 509.693 448.067 510.281C448.001 510.859 447.889 511.503 447.731 512.213L446.569 512.059C446.821 511.041 446.965 510.15 447.003 509.385C447.04 508.619 447.059 507.919 447.059 507.285V506.179Z" fill="#CDCDCD"/>
<path 
  class="district special"
  data-name="서구"
  d="M391.148 506.192C390.965 508.504 386.27 518.797 391.148 520.401C396.026 522.005 399.817 529.279 399.817 529.279C394.763 530.341 387.901 536.734 385.053 544.904C382.204 553.074 385.91 553.428 392.596 561.952C399.281 570.476 397.474 575.8 397.474 575.8C395.123 578.993 397.114 585.032 398.194 592.314C399.273 599.595 396.026 603.677 389.165 605.988C382.304 608.3 385.191 614.332 387.358 623.925C389.525 633.511 382.48 634.934 377.035 637.773C371.59 640.612 370.204 639.904 366.59 634.046C362.975 628.187 362.676 607.223 362.676 607.223L377.035 596.576C376.223 589.121 375.136 570.732 375.136 570.732C364.032 563.007 365.112 550.221 365.112 550.221C365.112 550.221 362.133 534.242 353.196 534.505C344.259 534.769 342.659 529.445 342.659 529.445C342.659 529.445 342.368 529.483 341.855 529.483C342.222 529.483 342.422 529.445 342.422 529.445C342.422 529.445 343.31 528.647 343.716 524.648C344.122 520.65 352.79 517.721 352.79 517.721C352.79 517.721 352.384 508.933 355.769 504.799C359.154 500.672 359.154 488.82 359.154 488.82C366.735 489.084 374.592 488.685 374.592 488.685C383.682 496.757 391.148 506.185 391.148 506.185V506.192Z" fill="#F0F0F0"/>
<path d="M366.056 523.661H369.57V524.613H366.056V523.661ZM362.99 520.455H363.942V522.723C363.942 523.423 363.854 524.114 363.676 524.795C363.508 525.476 363.266 526.111 362.948 526.699C362.631 527.287 362.258 527.81 361.828 528.267C361.408 528.724 360.946 529.088 360.442 529.359L359.714 528.421C360.181 528.197 360.61 527.884 361.002 527.483C361.404 527.082 361.754 526.624 362.052 526.111C362.351 525.588 362.58 525.042 362.738 524.473C362.906 523.894 362.99 523.311 362.99 522.723V520.455ZM363.228 520.455H364.166V522.723C364.166 523.292 364.246 523.857 364.404 524.417C364.572 524.977 364.806 525.504 365.104 525.999C365.403 526.484 365.748 526.918 366.14 527.301C366.542 527.684 366.971 527.982 367.428 528.197L366.728 529.135C366.224 528.874 365.758 528.524 365.328 528.085C364.899 527.646 364.526 527.142 364.208 526.573C363.9 526.004 363.658 525.392 363.48 524.739C363.312 524.086 363.228 523.414 363.228 522.723V520.455ZM368.996 519.363H370.144V532.047H368.996V519.363ZM374.035 520.189H381.959V521.127H374.035V520.189ZM372.607 525.621H384.045V526.587H372.607V525.621ZM377.717 526.265H378.879V532.047H377.717V526.265ZM381.399 520.189H382.547V521.295C382.547 521.734 382.538 522.196 382.519 522.681C382.51 523.166 382.473 523.703 382.407 524.291C382.342 524.87 382.23 525.514 382.071 526.223L380.909 526.069C381.161 525.052 381.306 524.16 381.343 523.395C381.381 522.63 381.399 521.93 381.399 521.295V520.189Z" fill="#CDCDCD"/>
<path 
  class="district special"
  data-name="사하구"
  d="M255.463 515.037C255.463 515.037 271.329 524.644 281.171 528.915C291.014 533.186 305.24 527.043 305.24 527.043C305.24 527.043 311.256 523.572 316.181 526.507C321.106 529.443 324.693 528.907 324.693 528.907C324.693 528.907 326.302 534.242 335.332 533.978C344.363 533.714 347.363 549.728 347.363 549.728C347.363 549.728 346.273 562.541 357.484 570.284C357.484 570.284 358.574 588.712 359.401 596.183L344.904 606.853L344.634 591.104C344.634 591.104 340.257 588.169 329.588 586.833C329.588 586.833 318.098 598.575 323.294 606.853C328.49 615.132 336.152 620.731 336.422 640.487C336.422 640.487 338.062 654.901 336.152 659.172C334.234 663.443 313.451 657.572 316.188 650.63C318.926 643.687 314.82 640.751 311.263 640.751C307.707 640.751 297.864 636.48 294.578 649.03C291.3 661.579 296.217 665.315 290.473 667.45C284.728 669.586 276.795 676.529 274.337 667.45C271.878 658.372 262.577 652.765 262.028 636.752C261.479 620.738 260.11 548.663 255.463 547.592C250.817 546.52 248.08 545.456 245.343 559.07C242.606 572.683 238.508 592.968 230.297 590.032C222.093 587.097 221.815 587.897 220.995 579.89C220.176 571.884 228.109 536.914 228.109 536.914L255.456 515.022L255.463 515.037Z" fill="#F0F0F0"/>
<path d="M282.692 572.956H283.644V575.224C283.644 575.924 283.556 576.61 283.378 577.282C283.21 577.954 282.968 578.584 282.65 579.172C282.333 579.76 281.96 580.283 281.53 580.74C281.101 581.198 280.634 581.562 280.13 581.832L279.416 580.894C279.883 580.661 280.312 580.348 280.704 579.956C281.106 579.555 281.456 579.098 281.754 578.584C282.053 578.071 282.282 577.53 282.44 576.96C282.608 576.382 282.692 575.803 282.692 575.224V572.956ZM282.902 572.956H283.84V575.224C283.84 575.784 283.92 576.34 284.078 576.89C284.246 577.441 284.48 577.959 284.778 578.444C285.077 578.93 285.418 579.364 285.8 579.746C286.192 580.129 286.612 580.432 287.06 580.656L286.346 581.58C285.852 581.328 285.394 580.983 284.974 580.544C284.564 580.106 284.2 579.606 283.882 579.046C283.574 578.477 283.332 577.87 283.154 577.226C282.986 576.573 282.902 575.906 282.902 575.224V572.956ZM288.166 571.864H289.328V584.534H288.166V571.864ZM289.062 576.988H291.4V577.982H289.062V576.988ZM301.059 571.864H302.207V584.534H301.059V571.864ZM301.941 577.072H304.279V578.052H301.941V577.072ZM292.407 573.894H299.869V574.846H292.407V573.894ZM296.201 575.882C296.799 575.882 297.326 576.008 297.783 576.26C298.25 576.512 298.614 576.858 298.875 577.296C299.146 577.726 299.281 578.225 299.281 578.794C299.281 579.364 299.146 579.868 298.875 580.306C298.614 580.745 298.25 581.09 297.783 581.342C297.326 581.585 296.799 581.706 296.201 581.706C295.604 581.706 295.072 581.585 294.605 581.342C294.148 581.09 293.784 580.745 293.513 580.306C293.243 579.868 293.107 579.364 293.107 578.794C293.107 578.225 293.243 577.726 293.513 577.296C293.784 576.858 294.148 576.512 294.605 576.26C295.072 576.008 295.604 575.882 296.201 575.882ZM296.201 576.848C295.819 576.848 295.478 576.932 295.179 577.1C294.881 577.268 294.643 577.497 294.465 577.786C294.297 578.076 294.213 578.412 294.213 578.794C294.213 579.177 294.297 579.518 294.465 579.816C294.643 580.106 294.881 580.334 295.179 580.502C295.478 580.661 295.819 580.74 296.201 580.74C296.575 580.74 296.911 580.661 297.209 580.502C297.508 580.334 297.741 580.106 297.909 579.816C298.087 579.518 298.175 579.177 298.175 578.794C298.175 578.412 298.087 578.076 297.909 577.786C297.741 577.497 297.508 577.268 297.209 577.1C296.911 576.932 296.575 576.848 296.201 576.848ZM295.599 572.018H296.761V574.314H295.599V572.018ZM306.784 572.69H314.708V573.628H306.784V572.69ZM305.356 578.122H316.794V579.088H305.356V578.122ZM310.466 578.766H311.628V584.548H310.466V578.766ZM314.148 572.69H315.296V573.796C315.296 574.235 315.287 574.697 315.268 575.182C315.259 575.668 315.222 576.204 315.156 576.792C315.091 577.371 314.979 578.015 314.82 578.724L313.658 578.57C313.91 577.553 314.055 576.662 314.092 575.896C314.13 575.131 314.148 574.431 314.148 573.796V572.69Z" fill="#CDCDCD"/>
<path 
  class="district special"
  data-name="사상구"
  d="M269.031 507.273L268.521 504.922C268.165 503.272 268.753 501.576 270.051 500.476C273.25 497.764 279.052 492.436 280.234 488.616C281.873 483.288 280.505 478.217 286.794 463.298C293.084 448.37 284.608 437.708 290.071 409.459C295.533 381.209 313.854 391.065 336.261 376.138C336.261 376.138 368.003 398.925 381.123 390.395C381.123 390.395 371.557 420.385 371.147 421.447C370.738 422.51 379.485 442.636 377.707 450.232C375.93 457.827 370.599 480.35 370.599 480.35C370.599 480.35 362.671 480.749 355.022 480.485C355.022 480.485 355.022 492.346 351.606 496.475C348.191 500.604 348.601 509.405 348.601 509.405C348.601 509.405 339.854 512.337 339.445 516.338C339.035 520.339 338.139 521.138 338.139 521.138C338.139 521.138 334.554 521.673 329.632 518.741C324.71 515.81 318.698 519.276 318.698 519.276C318.698 519.276 304.489 525.41 294.645 521.145C284.809 516.88 269.023 507.288 269.023 507.288" fill="#F0F0F0"/>
<path d="M315.148 445.584H316.1V447.852C316.1 448.552 316.011 449.238 315.834 449.91C315.666 450.582 315.423 451.212 315.106 451.8C314.788 452.388 314.415 452.91 313.986 453.368C313.556 453.825 313.09 454.189 312.586 454.46L311.872 453.522C312.338 453.288 312.768 452.976 313.16 452.584C313.561 452.182 313.911 451.725 314.21 451.212C314.508 450.698 314.737 450.157 314.896 449.588C315.064 449.009 315.148 448.43 315.148 447.852V445.584ZM315.358 445.584H316.296V447.852C316.296 448.412 316.375 448.967 316.534 449.518C316.702 450.068 316.935 450.586 317.234 451.072C317.532 451.557 317.873 451.991 318.256 452.374C318.648 452.756 319.068 453.06 319.516 453.284L318.802 454.208C318.307 453.956 317.85 453.61 317.43 453.172C317.019 452.733 316.655 452.234 316.338 451.674C316.03 451.104 315.787 450.498 315.61 449.854C315.442 449.2 315.358 448.533 315.358 447.852V445.584ZM320.622 444.492H321.784V457.162H320.622V444.492ZM321.518 449.616H323.856V450.61H321.518V449.616ZM328.012 445.15H328.964V446.438C328.964 447.25 328.82 448.006 328.53 448.706C328.25 449.406 327.849 450.017 327.326 450.54C326.804 451.053 326.192 451.445 325.492 451.716L324.862 450.792C325.506 450.558 326.062 450.222 326.528 449.784C327.004 449.345 327.368 448.841 327.62 448.272C327.882 447.693 328.012 447.082 328.012 446.438V445.15ZM328.222 445.15H329.16V446.536C329.16 446.956 329.235 447.371 329.384 447.782C329.534 448.183 329.744 448.556 330.014 448.902C330.294 449.247 330.621 449.555 330.994 449.826C331.368 450.087 331.783 450.297 332.24 450.456L331.624 451.366C330.952 451.114 330.36 450.75 329.846 450.274C329.333 449.788 328.932 449.228 328.642 448.594C328.362 447.95 328.222 447.264 328.222 446.536V445.15ZM333.598 444.492H334.76V452.178H333.598V444.492ZM334.438 447.768H336.622V448.748H334.438V447.768ZM330.728 452.514C331.587 452.514 332.324 452.607 332.94 452.794C333.566 452.971 334.046 453.232 334.382 453.578C334.718 453.923 334.886 454.338 334.886 454.824C334.886 455.309 334.718 455.724 334.382 456.07C334.046 456.415 333.566 456.676 332.94 456.854C332.324 457.04 331.587 457.134 330.728 457.134C329.87 457.134 329.128 457.04 328.502 456.854C327.877 456.676 327.396 456.415 327.06 456.07C326.724 455.724 326.556 455.309 326.556 454.824C326.556 454.338 326.724 453.923 327.06 453.578C327.396 453.232 327.877 452.971 328.502 452.794C329.128 452.607 329.87 452.514 330.728 452.514ZM330.728 453.438C330.103 453.438 329.562 453.494 329.104 453.606C328.656 453.718 328.311 453.876 328.068 454.082C327.826 454.287 327.704 454.534 327.704 454.824C327.704 455.122 327.826 455.374 328.068 455.58C328.311 455.785 328.656 455.944 329.104 456.056C329.562 456.158 330.103 456.21 330.728 456.21C331.354 456.21 331.89 456.158 332.338 456.056C332.786 455.944 333.132 455.785 333.374 455.58C333.617 455.374 333.738 455.122 333.738 454.824C333.738 454.534 333.617 454.287 333.374 454.082C333.132 453.876 332.786 453.718 332.338 453.606C331.89 453.494 331.354 453.438 330.728 453.438ZM339.239 445.318H347.163V446.256H339.239V445.318ZM337.811 450.75H349.249V451.716H337.811V450.75ZM342.921 451.394H344.083V457.176H342.921V451.394ZM346.603 445.318H347.751V446.424C347.751 446.862 347.742 447.324 347.723 447.81C347.714 448.295 347.677 448.832 347.611 449.42C347.546 449.998 347.434 450.642 347.275 451.352L346.113 451.198C346.365 450.18 346.51 449.289 346.547 448.524C346.585 447.758 346.603 447.058 346.603 446.424V445.318Z" fill="#CDCDCD"/>
<path 
  class="district special"
  data-name="강서구"
  d="M323.329 298C323.329 298 304.484 310.464 276.724 315.092C255.44 318.64 237.762 310.819 227.209 317.228C216.648 323.637 210.457 327.555 206.087 321.146C201.718 314.737 207.909 311.604 190.794 311.211C173.679 310.819 182.781 322.927 168.221 329.337C153.662 335.746 154.387 320.791 134.725 340.728C115.062 360.665 123.801 353.901 130.718 364.228C137.635 374.555 139.82 371.347 139.82 393.066C139.82 414.784 148.559 395.912 151.106 411.221C153.654 426.531 146.675 420.476 122.674 416.921C98.6731 413.358 87.3866 408.73 79.0106 423.33C79.0106 423.33 65.1765 430.803 52.0682 431.875C38.9599 432.947 44.7884 422.975 25.126 424.757C7.76399 426.327 8.00331 420.129 1.78111 429.445C-0.087098 432.238 -0.511683 435.725 0.630856 438.866C2.13623 442.995 4.40585 448.974 6.55197 453.594C10.1957 461.43 9.46236 462.14 18.5641 469.258C27.6658 476.377 28.0286 478.159 41.8703 478.868C55.7043 479.578 56.8006 480.295 60.8072 490.977C63.9646 499.394 67.3459 503.614 70.9588 507.464C72.8424 509.472 73.8691 512.114 73.7842 514.84L73.6298 519.731C73.5835 521.203 72.441 522.419 70.9356 522.57C67.1374 522.955 59.3403 523.785 48.5866 525.152C45.3056 525.567 42.5496 527.786 41.5306 530.866C40.5116 533.946 38.8828 538.015 36.7675 540.831C32.7609 546.168 36.0418 551.513 52.7862 555.431C68.1873 559.032 87.2785 572.869 109.218 571.752C112.438 571.586 115.294 569.676 116.714 566.845C117.895 564.497 119.771 561.674 122.558 559.741C123.137 559.341 123.948 559.62 124.156 560.285C125.461 564.542 130.093 577.512 136.523 571.82C144.166 565.048 147.447 571.457 150.358 546.893C153.168 523.227 147.524 523.679 159.637 502.414C160.617 500.693 162.354 499.5 164.346 499.19C166.585 498.843 169.765 498.609 173.193 499.153C174.274 499.326 174.999 500.345 174.806 501.402C174.096 505.177 171.996 514.107 166.739 523.038C159.822 534.784 166.376 548.32 168.924 557.575C171.471 566.83 187.127 562.557 187.127 562.557C187.127 562.557 205.331 559.711 208.249 550.094C211.159 540.484 205.338 536.566 215.891 526.948C226.452 517.338 220.076 520.894 228.814 513.949C228.814 513.949 248.207 498.194 256.12 492.049L255.61 489.694C255.255 488.04 255.842 486.342 257.139 485.24C260.335 482.522 266.132 477.185 267.313 473.357C268.95 468.02 267.584 462.94 273.868 447.993C280.151 433.038 271.683 422.356 277.141 394.055C282.599 365.753 300.902 375.627 323.29 360.673C323.29 360.673 318.921 341.181 323.29 328.627C327.66 316.073 323.29 298.008 323.29 298.008L323.329 298Z" fill="#F0F0F0"/>
<path d="M179.366 436.371H180.528V443.945H179.366V436.371ZM180.206 439.647H182.39V440.613H180.206V439.647ZM175.866 437.309H177.098C177.098 438.382 176.86 439.357 176.384 440.235C175.908 441.112 175.227 441.868 174.34 442.503C173.463 443.137 172.413 443.632 171.19 443.987L170.714 443.049C171.788 442.731 172.707 442.316 173.472 441.803C174.238 441.289 174.826 440.697 175.236 440.025C175.656 439.353 175.866 438.62 175.866 437.827V437.309ZM171.26 437.309H176.524V438.261H171.26V437.309ZM176.552 444.099C177.392 444.099 178.12 444.197 178.736 444.393C179.352 444.589 179.828 444.873 180.164 445.247C180.5 445.611 180.668 446.049 180.668 446.563C180.668 447.067 180.5 447.501 180.164 447.865C179.828 448.229 179.352 448.509 178.736 448.705C178.12 448.91 177.392 449.013 176.552 449.013C175.722 449.013 174.994 448.91 174.368 448.705C173.752 448.509 173.272 448.229 172.926 447.865C172.59 447.501 172.422 447.067 172.422 446.563C172.422 446.049 172.59 445.611 172.926 445.247C173.272 444.873 173.752 444.589 174.368 444.393C174.994 444.197 175.722 444.099 176.552 444.099ZM176.552 445.023C175.955 445.023 175.432 445.088 174.984 445.219C174.536 445.34 174.186 445.517 173.934 445.751C173.692 445.975 173.57 446.245 173.57 446.563C173.57 446.871 173.692 447.141 173.934 447.375C174.186 447.599 174.536 447.776 174.984 447.907C175.432 448.028 175.955 448.089 176.552 448.089C177.168 448.089 177.696 448.028 178.134 447.907C178.573 447.776 178.914 447.599 179.156 447.375C179.408 447.141 179.534 446.871 179.534 446.563C179.534 446.245 179.408 445.975 179.156 445.751C178.914 445.517 178.573 445.34 178.134 445.219C177.696 445.088 177.168 445.023 176.552 445.023ZM189.907 440.669H193.421V441.621H189.907V440.669ZM186.841 437.463H187.793V439.731C187.793 440.431 187.705 441.121 187.527 441.803C187.359 442.484 187.117 443.119 186.799 443.707C186.482 444.295 186.109 444.817 185.679 445.275C185.259 445.732 184.797 446.096 184.293 446.367L183.565 445.429C184.032 445.205 184.461 444.892 184.853 444.491C185.255 444.089 185.605 443.632 185.903 443.119C186.202 442.596 186.431 442.05 186.589 441.481C186.757 440.902 186.841 440.319 186.841 439.731V437.463ZM187.079 437.463H188.017V439.731C188.017 440.3 188.097 440.865 188.255 441.425C188.423 441.985 188.657 442.512 188.955 443.007C189.254 443.492 189.599 443.926 189.991 444.309C190.393 444.691 190.822 444.99 191.279 445.205L190.579 446.143C190.075 445.881 189.609 445.531 189.179 445.093C188.75 444.654 188.377 444.15 188.059 443.581C187.751 443.011 187.509 442.4 187.331 441.747C187.163 441.093 187.079 440.421 187.079 439.731V437.463ZM192.847 436.371H193.995V449.055H192.847V436.371ZM197.886 437.197H205.81V438.135H197.886V437.197ZM196.458 442.629H207.896V443.595H196.458V442.629ZM201.568 443.273H202.73V449.055H201.568V443.273ZM205.25 437.197H206.398V438.303C206.398 438.741 206.389 439.203 206.37 439.689C206.361 440.174 206.324 440.711 206.258 441.299C206.193 441.877 206.081 442.521 205.922 443.231L204.76 443.077C205.012 442.059 205.157 441.168 205.194 440.403C205.232 439.637 205.25 438.937 205.25 438.303V437.197Z" fill="#CDCDCD"/>
<path 
  class="district special"
  data-name="수영구"
  d="M562.944 417.069L571.832 416.001C573.298 418.407 582.5 424.494 589 435.994C590 442.994 598.245 462.22 598.245 462.22C598.245 462.22 597.931 461.682 587.582 463.022C577.234 464.356 580.013 467.908 576.888 477.353C573.763 486.798 566.603 490.298 566.603 490.298C563.784 488.662 559.74 488.306 558.5 487.874C557.259 487.442 549.47 483.587 547.39 474.21C545.309 464.833 544.618 457.061 536.005 454.782C536.005 454.782 535.722 447.874 539.334 443.322C542.946 438.769 536.696 432.202 545.584 428.453C554.472 424.704 554.056 418.137 562.944 417.069Z" fill="#D9D9D9"/>
<path d="M562.944 417.069L571.832 416.001C573.298 418.407 582.5 424.494 589 435.994C590 442.994 598.245 462.22 598.245 462.22C598.245 462.22 597.931 461.682 587.582 463.022C577.234 464.356 580.013 467.908 576.888 477.353C573.763 486.798 566.603 490.298 566.603 490.298C563.784 488.662 559.74 488.306 558.5 487.874C557.259 487.442 549.47 483.587 547.39 474.21C545.309 464.833 544.618 457.061 536.005 454.782C536.005 454.782 535.722 447.874 539.334 443.322C542.946 438.769 536.696 432.202 545.584 428.453C554.472 424.704 554.056 418.137 562.944 417.069Z" fill="white"/>
<path 
  class="district special"
  data-name="수영구외곽"
  d="M562.944 417.069L571.832 416.001C573.298 418.407 582.5 424.494 589 435.994C590 442.994 598.245 462.22 598.245 462.22C598.245 462.22 597.931 461.682 587.582 463.022C577.234 464.356 580.013 467.908 576.888 477.353C573.763 486.798 566.603 490.298 566.603 490.298C563.784 488.662 559.74 488.306 558.5 487.874C557.259 487.442 549.47 483.587 547.39 474.21C545.309 464.833 544.618 457.061 536.005 454.782C536.005 454.782 535.722 447.874 539.334 443.322C542.946 438.769 536.696 432.202 545.584 428.453C554.472 424.704 554.056 418.137 562.944 417.069Z" stroke="#559DD5" stroke-miterlimit="10"/>
<path d="M552.547 443.98H553.569V444.694C553.569 445.18 553.476 445.637 553.289 446.066C553.103 446.486 552.846 446.874 552.519 447.228C552.202 447.583 551.829 447.9 551.399 448.18C550.97 448.46 550.503 448.694 549.999 448.88C549.505 449.067 548.996 449.202 548.473 449.286L547.997 448.348C548.464 448.283 548.917 448.171 549.355 448.012C549.803 447.854 550.219 447.662 550.601 447.438C550.984 447.205 551.32 446.944 551.609 446.654C551.908 446.365 552.137 446.057 552.295 445.73C552.463 445.394 552.547 445.049 552.547 444.694V443.98ZM552.743 443.98H553.751V444.694C553.751 445.049 553.835 445.39 554.003 445.716C554.171 446.043 554.4 446.351 554.689 446.64C554.988 446.93 555.329 447.191 555.711 447.424C556.094 447.658 556.505 447.854 556.943 448.012C557.391 448.171 557.844 448.283 558.301 448.348L557.839 449.286C557.317 449.202 556.808 449.067 556.313 448.88C555.819 448.684 555.352 448.446 554.913 448.166C554.484 447.886 554.106 447.569 553.779 447.214C553.462 446.86 553.21 446.472 553.023 446.052C552.837 445.623 552.743 445.17 552.743 444.694V443.98ZM552.547 451.386H553.695V456.202H552.547V451.386ZM547.423 450.658H558.861V451.624H547.423V450.658ZM566.07 445.366H569.92V446.304H566.07V445.366ZM566.07 448.278H569.92V449.23H566.07V448.278ZM563.76 444.288C564.376 444.288 564.927 444.419 565.412 444.68C565.907 444.932 566.294 445.287 566.574 445.744C566.864 446.192 567.008 446.71 567.008 447.298C567.008 447.886 566.864 448.409 566.574 448.866C566.294 449.314 565.907 449.669 565.412 449.93C564.927 450.182 564.376 450.308 563.76 450.308C563.135 450.308 562.575 450.182 562.08 449.93C561.595 449.669 561.208 449.314 560.918 448.866C560.638 448.409 560.498 447.886 560.498 447.298C560.498 446.71 560.638 446.192 560.918 445.744C561.208 445.287 561.595 444.932 562.08 444.68C562.575 444.419 563.135 444.288 563.76 444.288ZM563.76 445.282C563.35 445.282 562.981 445.366 562.654 445.534C562.328 445.702 562.071 445.94 561.884 446.248C561.698 446.547 561.604 446.897 561.604 447.298C561.604 447.69 561.698 448.04 561.884 448.348C562.071 448.647 562.328 448.885 562.654 449.062C562.981 449.23 563.35 449.314 563.76 449.314C564.171 449.314 564.535 449.23 564.852 449.062C565.179 448.885 565.436 448.647 565.622 448.348C565.809 448.04 565.902 447.69 565.902 447.298C565.902 446.897 565.809 446.547 565.622 446.248C565.436 445.94 565.179 445.702 564.852 445.534C564.535 445.366 564.171 445.282 563.76 445.282ZM569.556 443.532H570.718V451.022H569.556V443.532ZM566.546 451.33C567.424 451.33 568.175 451.428 568.8 451.624C569.426 451.811 569.906 452.086 570.242 452.45C570.588 452.805 570.76 453.239 570.76 453.752C570.76 454.256 570.588 454.69 570.242 455.054C569.906 455.418 569.426 455.694 568.8 455.88C568.175 456.076 567.424 456.174 566.546 456.174C565.678 456.174 564.927 456.076 564.292 455.88C563.667 455.694 563.182 455.418 562.836 455.054C562.5 454.69 562.332 454.256 562.332 453.752C562.332 453.239 562.5 452.805 562.836 452.45C563.182 452.086 563.667 451.811 564.292 451.624C564.927 451.428 565.678 451.33 566.546 451.33ZM566.546 452.24C565.912 452.24 565.361 452.301 564.894 452.422C564.437 452.544 564.082 452.716 563.83 452.94C563.588 453.164 563.466 453.435 563.466 453.752C563.466 454.06 563.588 454.326 563.83 454.55C564.082 454.774 564.437 454.947 564.894 455.068C565.361 455.19 565.912 455.25 566.546 455.25C567.19 455.25 567.741 455.19 568.198 455.068C568.656 454.947 569.006 454.774 569.248 454.55C569.5 454.326 569.626 454.06 569.626 453.752C569.626 453.435 569.5 453.164 569.248 452.94C569.006 452.716 568.656 452.544 568.198 452.422C567.741 452.301 567.19 452.24 566.546 452.24ZM574.609 444.358H582.533V445.296H574.609V444.358ZM573.181 449.79H584.619V450.756H573.181V449.79ZM578.291 450.434H579.453V456.216H578.291V450.434ZM581.973 444.358H583.121V445.464C583.121 445.903 583.112 446.365 583.093 446.85C583.084 447.336 583.046 447.872 582.981 448.46C582.916 449.039 582.804 449.683 582.645 450.392L581.483 450.238C581.735 449.221 581.88 448.33 581.917 447.564C581.954 446.799 581.973 446.099 581.973 445.464V444.358Z" fill="#559DD5"/>
</svg>
