<svg width="909" height="672" viewBox="0 0 909 672" fill="none" xmlns="http://www.w3.org/2000/svg">
<path 
  id="기장군"
  class="district special"
  data-name="기장군" 
d="M641.236 255.11C635.779 251.274 631.411 245.244 627.861 237.294C624.311 229.343 612.572 230.164 608.204 229.343C603.836 228.521 599.737 215.913 606.02 204.397C612.302 192.882 616.57 183.218 615.026 170.951C613.66 160.078 586 144.633 586 144.633C586 144.633 589.643 138.876 590.731 130.103C591.819 121.331 603.565 114.201 606.568 106.251C609.57 98.2996 610.388 79.112 620.49 68.4178C630.593 57.7235 607.748 55.2592 614.486 48.3157C621.224 41.3722 640.695 39.7293 654.711 41.1862C654.711 41.1862 661.448 53.7946 683.282 60.0096C705.123 66.2247 708.218 56.5379 715.133 52.5159C722.048 48.494 725.868 51.4233 726.416 42.4649C726.964 33.5065 729.326 33.1423 732.783 26.3848C736.241 19.6196 719.679 18.7129 720.775 10.483C721.863 2.26081 722.773 -0.482495 729.326 0.0677147C735.878 0.617925 747.524 4.26791 752.078 11.9476C756.631 19.6195 761.362 20.906 773.193 17.2482C785.025 13.5905 798.492 10.483 819.06 5.36833C839.627 0.253701 845.995 4.81812 847.631 9.39029C849.267 13.9625 850.363 21.8204 865.829 35.1572C881.303 48.5017 865.104 44.4798 869.835 53.6163C874.565 62.7529 876.101 67.6893 872.698 75.3613C869.294 83.0332 875.114 94.5489 890.402 100.764C905.691 106.979 905.328 109.722 904.418 117.03C903.507 124.338 912.429 121.99 907.513 127.554C902.596 133.118 898.961 128.367 883.125 130.561C867.288 132.754 871.293 106.258 863.105 121.238C854.916 136.218 853.095 121.602 842.359 128.91C842.359 128.91 838.354 132.746 840.175 155.777C841.997 178.801 837.443 178.072 834.534 182.645C831.624 187.217 825.797 185.752 834.348 188.674C842.9 191.595 835.259 201.468 831.439 208.59C827.619 215.719 825.249 219.741 814.514 222.298C803.779 224.856 796.316 233.078 801.409 238.378C806.503 243.679 807.599 240.572 811.967 236.185C816.335 231.799 819.067 230.335 820.704 236.185C822.34 242.036 823.798 269.26 817.431 277.49C811.064 285.712 805.052 286.448 806.873 300.699C808.695 314.951 808.332 318.058 797.952 312.029C787.579 306 790.489 304.721 788.305 311.665C786.12 318.608 786.668 318.608 781.752 324.459C776.836 330.31 775.563 329.396 783.751 330.853C791.94 332.309 788.119 336.153 790.851 345.654C793.583 355.155 787.031 351.505 776.836 355.519C766.641 359.533 775.2 374.986 756.816 378C756.816 378 750.534 375.9 748.535 363.927C746.536 351.954 733.972 345.654 727.149 349.49C720.327 353.326 720.049 361.463 711.135 359.084C702.221 356.705 710.41 333.131 694.843 333.41C679.284 333.681 675.827 340.997 668.726 328.38C668.726 328.38 666.087 324.909 671.551 320.794C677.015 316.679 671.366 309.735 675.827 301.327C680.287 292.919 674.368 289.812 672.099 280.675C669.83 271.538 661.726 264.959 654.263 261.945C646.8 258.93 641.251 255.094 641.251 255.094L641.236 255.11Z" fill="#F0F0F0"/>
<path d="M718.143 172.543H719.305V185.213H718.143V172.543ZM714.433 173.915H715.581C715.581 174.83 715.469 175.712 715.245 176.561C715.03 177.41 714.689 178.218 714.223 178.983C713.756 179.739 713.149 180.444 712.403 181.097C711.656 181.75 710.751 182.334 709.687 182.847L709.071 181.909C710.293 181.321 711.301 180.635 712.095 179.851C712.888 179.067 713.476 178.194 713.859 177.233C714.241 176.262 714.433 175.217 714.433 174.097V173.915ZM709.659 173.915H714.923V174.853H709.659V173.915ZM724.918 173.901H725.87V174.923C725.87 175.707 725.72 176.43 725.422 177.093C725.132 177.756 724.722 178.334 724.19 178.829C723.667 179.324 723.046 179.702 722.328 179.963L721.74 179.039C722.374 178.815 722.93 178.498 723.406 178.087C723.882 177.667 724.25 177.186 724.512 176.645C724.782 176.104 724.918 175.53 724.918 174.923V173.901ZM725.128 173.901H726.08V174.923C726.08 175.474 726.206 175.996 726.458 176.491C726.71 176.986 727.064 177.42 727.522 177.793C727.979 178.166 728.516 178.46 729.132 178.675L728.586 179.585C727.876 179.342 727.265 178.992 726.752 178.535C726.238 178.078 725.837 177.541 725.548 176.925C725.268 176.3 725.128 175.632 725.128 174.923V173.901ZM722.09 173.481H728.866V174.433H722.09V173.481ZM730.462 172.543H731.624V180.173H730.462V172.543ZM731.302 175.763H733.486V176.729H731.302V175.763ZM727.592 180.523C728.45 180.523 729.188 180.616 729.804 180.803C730.429 180.98 730.91 181.242 731.246 181.587C731.582 181.932 731.75 182.352 731.75 182.847C731.75 183.342 731.582 183.762 731.246 184.107C730.91 184.452 730.429 184.718 729.804 184.905C729.188 185.092 728.45 185.185 727.592 185.185C726.733 185.185 725.991 185.092 725.366 184.905C724.74 184.718 724.26 184.452 723.924 184.107C723.588 183.762 723.42 183.342 723.42 182.847C723.42 182.352 723.588 181.932 723.924 181.587C724.26 181.242 724.74 180.98 725.366 180.803C725.991 180.616 726.733 180.523 727.592 180.523ZM727.592 181.447C726.966 181.447 726.425 181.503 725.968 181.615C725.52 181.727 725.174 181.886 724.932 182.091C724.689 182.296 724.568 182.548 724.568 182.847C724.568 183.146 724.689 183.402 724.932 183.617C725.174 183.822 725.52 183.981 725.968 184.093C726.425 184.205 726.966 184.261 727.592 184.261C728.217 184.261 728.754 184.205 729.202 184.093C729.65 183.981 729.995 183.822 730.238 183.617C730.48 183.402 730.602 183.146 730.602 182.847C730.602 182.548 730.48 182.296 730.238 182.091C729.995 181.886 729.65 181.727 729.202 181.615C728.754 181.503 728.217 181.447 727.592 181.447ZM736.131 173.215H744.209V174.167H736.131V173.215ZM734.675 178.129H746.155V179.067H734.675V178.129ZM739.883 178.703H741.031V182.105H739.883V178.703ZM743.523 173.215H744.671V174.223C744.671 174.802 744.652 175.441 744.615 176.141C744.577 176.841 744.456 177.667 744.251 178.619L743.103 178.479C743.308 177.564 743.429 176.766 743.467 176.085C743.504 175.404 743.523 174.783 743.523 174.223V173.215ZM736.117 183.981H744.923V184.933H736.117V183.981ZM736.117 180.971H737.279V184.233H736.117V180.971Z" fill="#CDCDCD"/>
<path 
  id="금정구"
  class="district special"
  data-name="금정구" 
d="M470.159 305.937C470.159 305.937 459.951 299.904 453.538 294.232C447.124 288.552 450.478 285.182 453.206 275.959C455.933 266.736 440.811 243.318 437.898 238.354C434.985 233.389 439.537 223.451 446.097 218.306C452.657 213.16 450.107 202.516 450.107 202.516C450.107 202.516 454.751 202.162 461.86 190.449C468.969 178.744 478.535 175.013 485.644 175.013C492.753 175.013 508.879 177.142 521.451 167.565C534.023 157.989 545.413 158.786 558.804 150C558.804 150 586.505 164.993 587.865 175.547C589.411 187.455 585.13 196.836 578.848 208.015C572.566 219.193 576.661 231.433 581.035 232.23C585.408 233.028 597.161 232.23 600.716 239.948C604.27 247.667 608.643 253.519 614.107 257.243C614.107 257.243 608.095 260.169 607.276 267.09C606.457 274.011 605.089 273.214 601.264 273.74C597.439 274.267 598.807 288.733 591.513 291.922C584.226 295.112 576.754 295.646 576.754 295.646C576.754 295.646 573.841 307.712 574.018 312.85C574.204 317.996 559.437 326.865 559.437 326.865C559.437 326.865 548.504 325.27 545.954 320.659C543.404 316.047 542.678 305.049 532.648 305.222C522.618 305.395 513.33 305.222 509.691 301.672C506.043 298.121 501.855 294.224 491.107 298.302C480.359 302.379 470.151 305.93 470.151 305.93L470.159 305.937Z" fill="#F0F0F0"/>
<path d="M505.705 233.677H513.853V234.629H505.705V233.677ZM504.249 238.339H515.729V239.291H504.249V238.339ZM513.097 233.677H514.245V234.615C514.245 235.147 514.226 235.735 514.189 236.379C514.151 237.023 514.03 237.788 513.825 238.675L512.677 238.605C512.882 237.746 513.003 237 513.041 236.365C513.078 235.721 513.097 235.138 513.097 234.615V233.677ZM505.663 241.013H514.287V245.507H505.663V241.013ZM513.139 241.937H506.797V244.555H513.139V241.937ZM523.89 236.295H526.732V237.261H523.89V236.295ZM526.382 233.005H527.544V240.551H526.382V233.005ZM523.372 240.943C524.249 240.943 525 241.036 525.626 241.223C526.26 241.41 526.746 241.68 527.082 242.035C527.418 242.38 527.586 242.805 527.586 243.309C527.586 244.056 527.208 244.634 526.452 245.045C525.705 245.456 524.678 245.661 523.372 245.661C522.065 245.661 521.034 245.456 520.278 245.045C519.531 244.634 519.158 244.056 519.158 243.309C519.158 242.805 519.326 242.38 519.662 242.035C520.007 241.68 520.492 241.41 521.118 241.223C521.752 241.036 522.504 240.943 523.372 240.943ZM523.372 241.853C522.737 241.853 522.191 241.909 521.734 242.021C521.276 242.133 520.922 242.296 520.67 242.511C520.427 242.726 520.306 242.992 520.306 243.309C520.306 243.608 520.427 243.864 520.67 244.079C520.922 244.294 521.276 244.462 521.734 244.583C522.191 244.695 522.737 244.751 523.372 244.751C524.016 244.751 524.562 244.695 525.01 244.583C525.467 244.462 525.817 244.294 526.06 244.079C526.312 243.864 526.438 243.608 526.438 243.309C526.438 242.992 526.312 242.726 526.06 242.511C525.817 242.296 525.467 242.133 525.01 242.021C524.562 241.909 524.016 241.853 523.372 241.853ZM520.348 234.293H521.3V235.315C521.3 236.09 521.15 236.818 520.852 237.499C520.562 238.171 520.152 238.764 519.62 239.277C519.088 239.781 518.472 240.168 517.772 240.439L517.17 239.515C517.646 239.347 518.075 239.118 518.458 238.829C518.85 238.54 519.186 238.208 519.466 237.835C519.755 237.462 519.974 237.06 520.124 236.631C520.273 236.202 520.348 235.763 520.348 235.315V234.293ZM520.572 234.293H521.524V235.301C521.524 235.842 521.65 236.37 521.902 236.883C522.154 237.396 522.513 237.849 522.98 238.241C523.446 238.633 523.983 238.941 524.59 239.165L524.002 240.089C523.311 239.837 522.709 239.473 522.196 238.997C521.682 238.512 521.281 237.952 520.992 237.317C520.712 236.682 520.572 236.01 520.572 235.301V234.293ZM517.534 233.929H524.296V234.881H517.534V233.929ZM531.435 233.831H539.359V234.769H531.435V233.831ZM530.007 239.263H541.445V240.229H530.007V239.263ZM535.117 239.907H536.279V245.689H535.117V239.907ZM538.799 233.831H539.947V234.937C539.947 235.376 539.937 235.838 539.919 236.323C539.909 236.808 539.872 237.345 539.807 237.933C539.741 238.512 539.629 239.156 539.471 239.865L538.309 239.711C538.561 238.694 538.705 237.802 538.743 237.037C538.78 236.272 538.799 235.572 538.799 234.937V233.831Z" fill="#CDCDCD"/>
<path
  id="해운대구"
  class="district special"
  data-name="해운대구" 
 d="M567.284 342.768L567.16 342.843C566.356 357.95 568.823 371.829 569.163 373.6C570.275 380.4 574.3 395.7 581.5 402.5C590.5 411 594.5 413.5 595 420C595.4 425.2 599.166 436.167 601 441C608.6 439.4 614.755 443.254 616.883 445.381C621.8 450.364 624.993 450.183 633.29 449.384C641.586 448.585 642.227 445.208 648.15 439.961C654.072 434.714 662.918 439.516 662.918 439.516C666.93 444.853 671.399 446.542 671.399 446.542C681.968 450.093 680.151 438.453 696.102 432.852C712.053 427.251 710.135 419.607 709.045 411.074C707.955 402.54 709.323 400.761 721.354 397.565C733.392 394.369 737.76 392.559 737.76 392.559C737.76 392.559 731.467 390.516 729.464 378.87C727.462 367.223 714.875 361.094 708.04 364.825C701.205 368.557 700.934 376.472 691.996 374.158C683.059 371.851 691.262 348.919 675.675 349.183C660.088 349.447 656.624 356.556 649.511 344.291C649.511 344.291 646.874 340.914 652.341 336.911C657.807 332.908 652.155 326.153 656.624 317.974C661.093 309.795 655.17 306.772 652.889 297.884C650.609 288.997 642.498 282.596 635.021 279.664C627.545 276.732 621.986 273 621.986 273C621.986 273 615.971 275.932 615.151 282.868C614.331 289.796 612.963 288.997 609.136 289.532C605.301 290.067 606.669 304.556 599.378 307.752C592.087 310.948 584.611 311.484 584.611 311.484C584.611 311.484 581.688 323.568 581.874 328.724C582.052 333.88 567.284 342.768 567.284 342.768Z" fill="#F0F0F0"/>
<path d="M612.672 378.592H618.958V379.544H612.672V378.592ZM615.822 380.384C616.354 380.384 616.821 380.505 617.222 380.748C617.633 380.991 617.955 381.331 618.188 381.77C618.421 382.199 618.538 382.699 618.538 383.268C618.538 383.837 618.421 384.341 618.188 384.78C617.955 385.209 617.633 385.55 617.222 385.802C616.821 386.045 616.354 386.166 615.822 386.166C615.299 386.166 614.833 386.045 614.422 385.802C614.011 385.55 613.689 385.209 613.456 384.78C613.223 384.341 613.106 383.837 613.106 383.268C613.106 382.699 613.223 382.199 613.456 381.77C613.689 381.341 614.011 381.005 614.422 380.762C614.833 380.51 615.299 380.384 615.822 380.384ZM615.822 381.364C615.505 381.364 615.215 381.448 614.954 381.616C614.702 381.775 614.501 381.999 614.352 382.288C614.212 382.568 614.142 382.895 614.142 383.268C614.142 383.641 614.212 383.973 614.352 384.262C614.501 384.551 614.702 384.775 614.954 384.934C615.215 385.093 615.505 385.172 615.822 385.172C616.149 385.172 616.438 385.093 616.69 384.934C616.942 384.775 617.138 384.551 617.278 384.262C617.427 383.973 617.502 383.641 617.502 383.268C617.502 382.895 617.427 382.568 617.278 382.288C617.138 381.999 616.942 381.775 616.69 381.616C616.438 381.448 616.149 381.364 615.822 381.364ZM622.304 376.422H623.41V389.092H622.304V376.422ZM620.274 381.756H622.668V382.708H620.274V381.756ZM619.588 376.716H620.68V388.476H619.588V376.716ZM615.248 376.8H616.396V379.166H615.248V376.8ZM625.565 382.848H637.045V383.8H625.565V382.848ZM630.815 383.45H631.991V386.362H630.815V383.45ZM627.035 387.846H635.771V388.812H627.035V387.846ZM627.035 385.116H628.197V388.112H627.035V385.116ZM631.291 376.744C632.187 376.744 632.966 376.847 633.629 377.052C634.292 377.257 634.805 377.551 635.169 377.934C635.542 378.307 635.729 378.76 635.729 379.292C635.729 379.805 635.542 380.253 635.169 380.636C634.805 381.019 634.292 381.313 633.629 381.518C632.966 381.723 632.187 381.826 631.291 381.826C630.404 381.826 629.625 381.723 628.953 381.518C628.29 381.313 627.772 381.019 627.399 380.636C627.035 380.253 626.853 379.805 626.853 379.292C626.853 378.76 627.035 378.307 627.399 377.934C627.772 377.551 628.29 377.257 628.953 377.052C629.625 376.847 630.404 376.744 631.291 376.744ZM631.291 377.682C630.656 377.682 630.096 377.747 629.611 377.878C629.126 378.009 628.748 378.195 628.477 378.438C628.216 378.671 628.085 378.956 628.085 379.292C628.085 379.619 628.216 379.903 628.477 380.146C628.748 380.379 629.126 380.561 629.611 380.692C630.096 380.813 630.656 380.874 631.291 380.874C631.944 380.874 632.509 380.813 632.985 380.692C633.461 380.561 633.83 380.379 634.091 380.146C634.362 379.903 634.497 379.619 634.497 379.292C634.497 378.956 634.362 378.671 634.091 378.438C633.83 378.195 633.461 378.009 632.985 377.878C632.509 377.747 631.944 377.682 631.291 377.682ZM648.09 376.422H649.196V389.092H648.09V376.422ZM645.948 381.504H648.384V382.456H645.948V381.504ZM645.22 376.702H646.298V388.434H645.22V376.702ZM638.906 384.99H639.732C640.357 384.99 640.922 384.985 641.426 384.976C641.939 384.957 642.424 384.92 642.882 384.864C643.348 384.808 643.824 384.729 644.31 384.626L644.422 385.592C643.918 385.695 643.428 385.774 642.952 385.83C642.485 385.886 641.99 385.923 641.468 385.942C640.954 385.961 640.376 385.97 639.732 385.97H638.906V384.99ZM638.906 377.962H643.61V378.914H640.068V385.438H638.906V377.962ZM652.765 377.248H660.689V378.186H652.765V377.248ZM651.337 382.68H662.775V383.646H651.337V382.68ZM656.447 383.324H657.609V389.106H656.447V383.324ZM660.129 377.248H661.277V378.354C661.277 378.793 661.267 379.255 661.249 379.74C661.239 380.225 661.202 380.762 661.137 381.35C661.071 381.929 660.959 382.573 660.801 383.282L659.639 383.128C659.891 382.111 660.035 381.219 660.073 380.454C660.11 379.689 660.129 378.989 660.129 378.354V377.248Z" fill="#CDCDCD"/>
<path
  id="남구"
  class="district special"
  data-name="남구"
 d="M528.285 458.582C536.811 460.85 537.495 468.578 539.555 477.904C541.615 487.23 549.325 491.064 550.553 491.493C552.17 492.058 559.352 492.556 561 496.42C562.648 500.284 566.363 503.215 569.954 501.881C573.545 500.548 578.185 509.339 580.937 516.006C583.688 522.672 580.385 527.463 585.608 532.322C590.831 537.181 590.831 539.184 588.08 545.715C585.328 552.246 583.541 552.111 582.997 560.103C582.452 568.096 573.234 568.766 566.091 568.367C558.94 567.968 555.505 562.905 553.033 559.305C550.561 555.704 548.773 558.371 546.434 562.77C544.094 567.169 540.519 568.096 533.096 565.7C525.673 563.305 528.969 555.305 528.277 550.913C527.585 546.521 524.437 541.587 516.742 544.118C509.047 546.649 498.873 552.909 486.911 546.913C474.949 540.917 482.239 534.921 479.488 531.192C476.736 527.463 469.508 531.192 469.508 531.192L468.062 528.525C466.764 526.717 468.163 524.759 469.383 523.554C470.627 522.326 471.552 520.827 472.05 519.177C474.405 511.29 474.125 497.798 472.399 493.821C470.409 489.226 469.858 485.098 469.858 485.098C469.858 485.098 474.529 478.567 478.244 478.168C481.96 477.768 494.606 477.369 498.181 473.241C501.726 469.143 504.873 466.74 510.423 457.595C510.61 457.58 516.913 457.143 528.285 458.582Z" fill="#F0F0F0"/>
<path d="M520.917 508.098H522.079V515.252H520.917V508.098ZM521.771 510.996H523.955V511.962H521.771V510.996ZM514.099 515.938H522.079V520.572H514.099V515.938ZM520.945 516.862H515.233V519.634H520.945V516.862ZM512.853 508.728H514.015V513.796H512.853V508.728ZM512.853 513.32H513.861C514.775 513.32 515.709 513.283 516.661 513.208C517.613 513.124 518.602 512.975 519.629 512.76L519.769 513.726C518.705 513.941 517.687 514.09 516.717 514.174C515.755 514.249 514.803 514.286 513.861 514.286H512.853V513.32ZM526.558 508.91H534.482V509.848H526.558V508.91ZM525.13 514.342H536.568V515.308H525.13V514.342ZM530.24 514.986H531.402V520.768H530.24V514.986ZM533.922 508.91H535.07V510.016C535.07 510.455 535.06 510.917 535.042 511.402C535.032 511.887 534.995 512.424 534.93 513.012C534.864 513.591 534.752 514.235 534.594 514.944L533.432 514.79C533.684 513.773 533.828 512.881 533.866 512.116C533.903 511.351 533.922 510.651 533.922 510.016V508.91Z" fill="#CDCDCD"/>
<path
  id="남구"
  class="district special"
  data-name="남구"
 d="M558.55 388.592C535.167 382.066 529.685 384.814 519.153 386.274C508.622 387.742 508.351 378.016 501.508 377.218C494.673 376.42 480.174 390 468.135 392.793C457.086 395.36 443.879 378.761 441.783 376.021C443.306 378.423 451.348 391.122 451.719 391.724C455.562 397.957 458.284 403.437 466.991 404.242C475.697 405.04 476.061 404.904 480.847 412.5C485.633 420.087 493.977 414.494 498.902 418.093C503.828 421.691 506.426 432.207 505.877 434.066C505.328 435.933 501.639 438.191 501.639 438.191C506.565 443.919 511.073 447.247 511.073 447.247C511.073 447.247 517.375 446.765 528.865 448.233C528.865 448.233 528.594 441.443 532.144 436.919C535.7 432.395 529.545 425.869 538.298 422.142C547.051 418.416 546.642 411.89 555.395 410.829L564.148 409.767C564.148 409.767 561.132 402.255 558.542 388.6L558.55 388.592Z" fill="#F0F0F0"/>
<path d="M503.077 401.362H506.885V402.314H503.077V401.362ZM503.077 404.386H506.885V405.338H503.077V404.386ZM506.479 399.388H507.641V408.74H506.479V399.388ZM499.563 410.812H507.991V411.764H499.563V410.812ZM499.563 407.774H500.711V411.218H499.563V407.774ZM500.683 400.186C501.299 400.186 501.85 400.321 502.335 400.592C502.83 400.863 503.217 401.236 503.497 401.712C503.787 402.188 503.931 402.734 503.931 403.35C503.931 403.975 503.787 404.526 503.497 405.002C503.217 405.478 502.83 405.851 502.335 406.122C501.85 406.393 501.299 406.528 500.683 406.528C500.058 406.528 499.498 406.393 499.003 406.122C498.518 405.851 498.131 405.478 497.841 405.002C497.561 404.526 497.421 403.975 497.421 403.35C497.421 402.734 497.561 402.188 497.841 401.712C498.131 401.236 498.518 400.863 499.003 400.592C499.498 400.321 500.058 400.186 500.683 400.186ZM500.683 401.222C500.273 401.222 499.904 401.315 499.577 401.502C499.251 401.679 498.994 401.931 498.807 402.258C498.621 402.575 498.527 402.944 498.527 403.364C498.527 403.775 498.621 404.143 498.807 404.47C498.994 404.797 499.251 405.053 499.577 405.24C499.904 405.417 500.273 405.506 500.683 405.506C501.085 405.506 501.449 405.417 501.775 405.24C502.102 405.053 502.359 404.797 502.545 404.47C502.732 404.143 502.825 403.775 502.825 403.364C502.825 402.944 502.732 402.575 502.545 402.258C502.359 401.931 502.102 401.679 501.775 401.502C501.449 401.315 501.085 401.222 500.683 401.222ZM519.736 399.374H520.842V412.044H519.736V399.374ZM515.116 403.924H517.552V404.876H515.116V403.924ZM517.202 399.668H518.294V411.386H517.202V399.668ZM512.694 401.348H513.59V402.958C513.59 403.649 513.525 404.325 513.394 404.988C513.264 405.641 513.072 406.257 512.82 406.836C512.568 407.405 512.26 407.923 511.896 408.39C511.532 408.847 511.122 409.221 510.664 409.51L509.95 408.642C510.538 408.287 511.033 407.811 511.434 407.214C511.845 406.617 512.158 405.949 512.372 405.212C512.587 404.475 512.694 403.723 512.694 402.958V401.348ZM512.932 401.348H513.814V402.958C513.814 403.686 513.917 404.4 514.122 405.1C514.337 405.8 514.64 406.435 515.032 407.004C515.434 407.564 515.924 408.012 516.502 408.348L515.802 409.216C515.186 408.833 514.664 408.325 514.234 407.69C513.814 407.046 513.492 406.318 513.268 405.506C513.044 404.685 512.932 403.835 512.932 402.958V401.348ZM510.3 400.858H516.082V401.81H510.3V400.858ZM524.411 400.2H532.335V401.138H524.411V400.2ZM522.983 405.632H534.421V406.598H522.983V405.632ZM528.093 406.276H529.255V412.058H528.093V406.276ZM531.775 400.2H532.923V401.306C532.923 401.745 532.914 402.207 532.895 402.692C532.886 403.177 532.849 403.714 532.783 404.302C532.718 404.881 532.606 405.525 532.447 406.234L531.285 406.08C531.537 405.063 531.682 404.171 531.719 403.406C531.757 402.641 531.775 401.941 531.775 401.306V400.2Z" fill="#CDCDCD"/>
<path
  id="동래구"
  class="district special"
  data-name="동래구"
 d="M556.668 347.787C556.668 347.787 545.719 346.189 543.166 341.567C540.612 336.946 539.885 325.923 529.841 326.097C519.797 326.27 510.496 326.097 506.852 322.538C503.207 318.979 499.005 315.074 488.242 319.16C477.478 323.247 467.257 326.805 467.257 326.805C467.257 326.805 461.144 355.877 441.783 365.889C441.783 365.889 456.4 385.876 468.448 383.079C480.488 380.282 494.997 366.681 501.845 367.48C508.693 368.279 508.964 378.012 519.503 376.55C530.042 375.079 535.381 372.147 558.781 378.683C558.781 378.683 555.809 363.974 556.684 347.795L556.668 347.787Z" fill="#F0F0F0"/>
<path d="M482.198 350.151H493.65V351.089H482.198V350.151ZM487.35 348.121H488.484V350.543H487.35V348.121ZM483.64 347.757H492.306V348.695H483.64V347.757ZM483.64 344.495H492.222V345.419H484.788V348.317H483.64V344.495ZM487.91 351.999C489.263 351.999 490.323 352.2 491.088 352.601C491.853 352.993 492.236 353.553 492.236 354.281C492.236 355.009 491.853 355.569 491.088 355.961C490.323 356.363 489.263 356.563 487.91 356.563C486.557 356.563 485.493 356.363 484.718 355.961C483.953 355.569 483.57 355.009 483.57 354.281C483.57 353.553 483.953 352.993 484.718 352.601C485.493 352.2 486.557 351.999 487.91 351.999ZM487.896 352.909C487.243 352.909 486.678 352.965 486.202 353.077C485.735 353.18 485.376 353.334 485.124 353.539C484.872 353.735 484.746 353.983 484.746 354.281C484.746 354.571 484.872 354.818 485.124 355.023C485.376 355.229 485.735 355.383 486.202 355.485C486.678 355.597 487.243 355.653 487.896 355.653C488.568 355.653 489.137 355.597 489.604 355.485C490.08 355.383 490.444 355.229 490.696 355.023C490.948 354.818 491.074 354.571 491.074 354.281C491.074 353.983 490.948 353.735 490.696 353.539C490.444 353.334 490.08 353.18 489.604 353.077C489.137 352.965 488.568 352.909 487.896 352.909ZM495.497 352.573H496.323C497.098 352.573 497.854 352.555 498.591 352.517C499.328 352.471 500.122 352.377 500.971 352.237L501.083 353.189C500.206 353.348 499.389 353.451 498.633 353.497C497.886 353.535 497.116 353.553 496.323 353.553H495.497V352.573ZM495.469 345.279H500.201V349.731H496.617V352.937H495.497V348.779H499.081V346.245H495.469V345.279ZM504.709 343.907H505.815V356.577H504.709V343.907ZM502.567 348.905H505.003V349.857H502.567V348.905ZM501.839 344.187H502.917V355.919H501.839V344.187ZM509.384 344.733H517.308V345.671H509.384V344.733ZM507.956 350.165H519.394V351.131H507.956V350.165ZM513.066 350.809H514.228V356.591H513.066V350.809ZM516.748 344.733H517.896V345.839C517.896 346.278 517.887 346.74 517.868 347.225C517.859 347.711 517.821 348.247 517.756 348.835C517.691 349.414 517.579 350.058 517.42 350.767L516.258 350.613C516.51 349.596 516.655 348.705 516.692 347.939C516.729 347.174 516.748 346.474 516.748 345.839V344.733Z" fill="#CDCDCD"/>
<path
  id="북구"
  class="district special"
  data-name="북구"
 d="M385.651 376.258C372.888 384.544 342.506 363.245 340.852 362.071C340.883 362.048 340.914 362.033 340.945 362.01C340.945 362.01 336.569 342.577 340.945 330.061C345.32 317.545 340.945 299.534 340.945 299.534C340.945 299.534 357.535 291.549 359.537 283.029C361.539 274.509 361.176 267.058 369.563 258.357C377.951 249.657 377.588 245.578 376.853 239.368C376.119 233.159 375.578 225.527 384.329 223.036C393.08 220.552 411.309 217.888 427.35 217C427.35 217 429.901 227.65 423.338 232.798C416.774 237.946 412.213 247.888 415.135 252.856C418.058 257.823 433.186 281.253 430.45 290.48C427.713 299.707 424.366 303.079 430.782 308.761C437.199 314.444 447.411 320.472 447.411 320.472C447.411 320.472 441.304 349.494 421.962 359.489C410.799 365.262 385.659 376.25 385.659 376.25L385.651 376.258Z" fill="#F0F0F0"/>
<path d="M383.481 318.35H384.629V320.52H383.481V318.35ZM378.343 317.72H389.781V318.658H378.343V317.72ZM379.617 320.128H388.367V324.188H387.205V321.08H379.617V320.128ZM379.855 311.812H381.003V313.254H387.135V311.812H388.283V316.558H379.855V311.812ZM381.003 314.15V315.62H387.135V314.15H381.003ZM392.649 312.344H400.573V313.282H392.649V312.344ZM391.221 317.776H402.659V318.742H391.221V317.776ZM396.331 318.42H397.493V324.202H396.331V318.42ZM400.013 312.344H401.161V313.45C401.161 313.888 401.152 314.35 401.133 314.836C401.124 315.321 401.087 315.858 401.021 316.446C400.956 317.024 400.844 317.668 400.685 318.378L399.523 318.224C399.775 317.206 399.92 316.315 399.957 315.55C399.995 314.784 400.013 314.084 400.013 313.45V312.344Z" fill="#CDCDCD"/>
<path
  id="부산진구"
  class="district special"
  data-name="부산진구"
 d="M381.039 483.932C381.039 483.932 386.355 461.57 388.127 454.028C389.899 446.487 381.177 426.503 381.586 425.448C381.994 424.394 391.532 394.617 391.532 394.617C391.532 394.617 416.549 383.813 427.636 378C427.636 378 437.375 393.337 437.783 393.996C441.613 400.19 444.325 405.637 453 406.438C461.675 407.238 462.038 407.096 466.807 414.645C471.576 422.186 479.889 416.628 484.797 420.204C489.705 423.78 492.294 434.232 491.747 436.08C491.2 437.928 487.525 440.18 487.525 440.18C492.433 445.873 496.924 449.18 496.924 449.18C491.338 458.442 488.203 460.821 484.659 464.929C481.114 469.029 468.579 469.425 464.896 469.822C461.213 470.218 456.583 476.705 456.583 476.705C456.583 476.705 454.402 476.967 448.678 477.498C442.953 478.029 441.728 475.777 437.367 475.246C433.006 474.715 421.966 476.832 421.966 476.832C417.335 486.887 408.066 492.05 402.75 494.564C397.434 497.077 397.657 501.492 397.657 501.492C397.657 501.492 390.145 492.125 381 484.104" fill="#F0F0F0"/>
<path d="M408.52 441.299H420V442.237H408.52V441.299ZM413.658 441.733H414.806V446.465H413.658V441.733ZM409.976 434.313H411.124V436.049H417.382V434.313H418.544V439.787H409.976V434.313ZM411.124 436.987V438.835H417.382V436.987H411.124ZM424.521 434.565H425.487V436.119C425.487 436.95 425.342 437.715 425.053 438.415C424.764 439.106 424.358 439.708 423.835 440.221C423.312 440.734 422.696 441.126 421.987 441.397L421.357 440.473C422.001 440.249 422.561 439.922 423.037 439.493C423.513 439.054 423.877 438.546 424.129 437.967C424.39 437.388 424.521 436.772 424.521 436.119V434.565ZM424.731 434.565H425.669V436.161C425.669 436.59 425.744 437.01 425.893 437.421C426.052 437.832 426.266 438.219 426.537 438.583C426.817 438.938 427.144 439.25 427.517 439.521C427.9 439.782 428.324 439.997 428.791 440.165L428.203 441.089C427.512 440.828 426.906 440.454 426.383 439.969C425.86 439.484 425.454 438.914 425.165 438.261C424.876 437.608 424.731 436.908 424.731 436.161V434.565ZM430.079 433.795H431.241V443.147H430.079V433.795ZM430.877 437.673H433.103V438.653H430.877V437.673ZM423.373 445.233H431.801V446.185H423.373V445.233ZM423.373 442.251H424.549V445.695H423.373V442.251ZM437.666 435.181H438.632V436.483C438.632 437.258 438.482 437.976 438.184 438.639C437.885 439.302 437.465 439.885 436.924 440.389C436.392 440.884 435.771 441.257 435.062 441.509L434.46 440.599C435.094 440.366 435.65 440.044 436.126 439.633C436.611 439.222 436.989 438.746 437.26 438.205C437.53 437.654 437.666 437.08 437.666 436.483V435.181ZM437.89 435.181H438.842V436.483C438.842 436.912 438.916 437.328 439.066 437.729C439.224 438.121 439.448 438.49 439.738 438.835C440.027 439.171 440.363 439.47 440.746 439.731C441.138 439.992 441.567 440.198 442.034 440.347L441.446 441.257C440.746 441.014 440.13 440.66 439.598 440.193C439.066 439.726 438.646 439.176 438.338 438.541C438.039 437.906 437.89 437.22 437.89 436.483V435.181ZM434.768 434.845H441.698V435.797H434.768V434.845ZM443.504 433.809H444.666V443.077H443.504V433.809ZM436.532 445.233H445.058V446.185H436.532V445.233ZM436.532 442.209H437.694V445.653H436.532V442.209ZM448.599 434.621H456.523V435.559H448.599V434.621ZM447.171 440.053H458.609V441.019H447.171V440.053ZM452.281 440.697H453.443V446.479H452.281V440.697ZM455.963 434.621H457.111V435.727C457.111 436.166 457.101 436.628 457.083 437.113C457.073 437.598 457.036 438.135 456.971 438.723C456.905 439.302 456.793 439.946 456.635 440.655L455.473 440.501C455.725 439.484 455.869 438.592 455.907 437.827C455.944 437.062 455.963 436.362 455.963 435.727V434.621Z" fill="#CDCDCD"/>
<path
  id="영도구"
  class="district special"
  data-name="영도구"
 d="M441.871 591.687C445.444 588.152 475.534 588.779 475.534 588.779C474.602 579.828 487.363 568.875 487.363 568.875C487.363 568.875 509.565 587.238 532.723 614.582C532.723 614.582 534.61 619.99 534.495 628.511C534.456 631.041 535.234 633.511 536.666 635.611C538.676 638.542 542.088 642.629 547.256 646.103C555.658 651.761 554.349 658 550.506 666.158C549.628 668.016 547.903 669.338 545.862 669.769C542.72 670.426 537.406 670.894 529.951 669.383C528.149 669.021 526.47 668.213 525.03 667.087C520.001 663.129 507.001 653.256 500.216 651.277C491.683 648.785 500.763 643.082 490.412 635.067C480.062 627.053 450.635 616.01 447.185 607.633C447.185 607.633 446.684 600.064 444.282 595.879L441.879 591.694L441.871 591.687Z" fill="#F0F0F0"/>
<path d="M482.687 607.666H486.537V608.604H482.687V607.666ZM482.687 610.578H486.537V611.53H482.687V610.578ZM480.377 606.588C480.993 606.588 481.543 606.719 482.029 606.98C482.523 607.232 482.911 607.587 483.191 608.044C483.48 608.492 483.625 609.01 483.625 609.598C483.625 610.186 483.48 610.709 483.191 611.166C482.911 611.614 482.523 611.969 482.029 612.23C481.543 612.482 480.993 612.608 480.377 612.608C479.751 612.608 479.191 612.482 478.697 612.23C478.211 611.969 477.824 611.614 477.535 611.166C477.255 610.709 477.115 610.186 477.115 609.598C477.115 609.01 477.255 608.492 477.535 608.044C477.824 607.587 478.211 607.232 478.697 606.98C479.191 606.719 479.751 606.588 480.377 606.588ZM480.377 607.582C479.966 607.582 479.597 607.666 479.271 607.834C478.944 608.002 478.687 608.24 478.501 608.548C478.314 608.847 478.221 609.197 478.221 609.598C478.221 609.99 478.314 610.34 478.501 610.648C478.687 610.947 478.944 611.185 479.271 611.362C479.597 611.53 479.966 611.614 480.377 611.614C480.787 611.614 481.151 611.53 481.469 611.362C481.795 611.185 482.052 610.947 482.239 610.648C482.425 610.34 482.519 609.99 482.519 609.598C482.519 609.197 482.425 608.847 482.239 608.548C482.052 608.24 481.795 608.002 481.469 607.834C481.151 607.666 480.787 607.582 480.377 607.582ZM486.173 605.832H487.335V613.322H486.173V605.832ZM483.163 613.63C484.04 613.63 484.791 613.728 485.417 613.924C486.042 614.111 486.523 614.386 486.859 614.75C487.204 615.105 487.377 615.539 487.377 616.052C487.377 616.556 487.204 616.99 486.859 617.354C486.523 617.718 486.042 617.993 485.417 618.18C484.791 618.376 484.04 618.474 483.163 618.474C482.295 618.474 481.543 618.376 480.909 618.18C480.283 617.993 479.798 617.718 479.453 617.354C479.117 616.99 478.949 616.556 478.949 616.052C478.949 615.539 479.117 615.105 479.453 614.75C479.798 614.386 480.283 614.111 480.909 613.924C481.543 613.728 482.295 613.63 483.163 613.63ZM483.163 614.54C482.528 614.54 481.977 614.601 481.511 614.722C481.053 614.843 480.699 615.016 480.447 615.24C480.204 615.464 480.083 615.735 480.083 616.052C480.083 616.36 480.204 616.626 480.447 616.85C480.699 617.074 481.053 617.247 481.511 617.368C481.977 617.489 482.528 617.55 483.163 617.55C483.807 617.55 484.357 617.489 484.815 617.368C485.272 617.247 485.622 617.074 485.865 616.85C486.117 616.626 486.243 616.36 486.243 616.052C486.243 615.735 486.117 615.464 485.865 615.24C485.622 615.016 485.272 614.843 484.815 614.722C484.357 614.601 483.807 614.54 483.163 614.54ZM491.254 611.754H499.948V612.692H491.254V611.754ZM489.798 615.94H501.278V616.906H489.798V615.94ZM494.936 612.16H496.084V616.318H494.936V612.16ZM491.254 606.84H499.822V607.806H492.416V612.174H491.254V606.84ZM504.105 606.658H512.029V607.596H504.105V606.658ZM502.677 612.09H514.115V613.056H502.677V612.09ZM507.787 612.734H508.949V618.516H507.787V612.734ZM511.469 606.658H512.617V607.764C512.617 608.203 512.607 608.665 512.589 609.15C512.579 609.635 512.542 610.172 512.477 610.76C512.411 611.339 512.299 611.983 512.141 612.692L510.979 612.538C511.231 611.521 511.375 610.629 511.413 609.864C511.45 609.099 511.469 608.399 511.469 607.764V606.658Z" fill="#CDCDCD"/>
<path
  id="중구"
  class="district special"
  data-name="중구"
 d="M435.57 584.612C439.159 581.104 469.376 581.958 469.376 581.958C468.44 573.076 481.256 562.207 481.256 562.207C475.509 553.324 476.607 545.904 476.607 545.904C459.368 537.418 434.89 540.574 434.89 540.574C429.785 541.631 422.856 547.995 419.979 556.128C417.101 564.261 420.845 564.613 427.597 573.098C434.348 581.583 432.523 586.883 432.523 586.883C432.523 586.883 431.99 588.12 435.578 584.612H435.57Z" fill="#F0F0F0"/>
<path d="M443.086 562.354H444.234V564.566H443.086V562.354ZM437.948 561.948H449.386V562.9H437.948V561.948ZM443.66 564.216C445.013 564.216 446.073 564.408 446.838 564.79C447.603 565.173 447.986 565.724 447.986 566.442C447.986 567.152 447.603 567.698 446.838 568.08C446.073 568.472 445.013 568.668 443.66 568.668C442.307 568.668 441.243 568.472 440.468 568.08C439.703 567.698 439.32 567.152 439.32 566.442C439.32 565.724 439.703 565.173 440.468 564.79C441.243 564.408 442.307 564.216 443.66 564.216ZM443.66 565.126C442.997 565.126 442.428 565.178 441.952 565.28C441.485 565.383 441.126 565.532 440.874 565.728C440.622 565.924 440.496 566.162 440.496 566.442C440.496 566.722 440.622 566.96 440.874 567.156C441.126 567.352 441.485 567.502 441.952 567.604C442.428 567.716 442.997 567.772 443.66 567.772C444.323 567.772 444.887 567.716 445.354 567.604C445.83 567.502 446.194 567.352 446.446 567.156C446.698 566.96 446.824 566.722 446.824 566.442C446.824 566.162 446.698 565.924 446.446 565.728C446.194 565.532 445.83 565.383 445.354 565.28C444.887 565.178 444.323 565.126 443.66 565.126ZM442.918 557.076H443.94V557.454C443.94 557.865 443.851 558.243 443.674 558.588C443.506 558.934 443.268 559.256 442.96 559.554C442.652 559.844 442.288 560.1 441.868 560.324C441.457 560.548 441.009 560.735 440.524 560.884C440.039 561.024 439.53 561.127 438.998 561.192L438.578 560.268C439.035 560.222 439.474 560.142 439.894 560.03C440.323 559.909 440.72 559.764 441.084 559.596C441.457 559.419 441.779 559.218 442.05 558.994C442.321 558.77 442.531 558.528 442.68 558.266C442.839 558.005 442.918 557.734 442.918 557.454V557.076ZM443.394 557.076H444.416V557.454C444.416 557.744 444.491 558.019 444.64 558.28C444.799 558.532 445.013 558.77 445.284 558.994C445.555 559.209 445.872 559.405 446.236 559.582C446.609 559.75 447.006 559.895 447.426 560.016C447.855 560.138 448.299 560.222 448.756 560.268L448.336 561.192C447.804 561.127 447.295 561.024 446.81 560.884C446.325 560.735 445.872 560.548 445.452 560.324C445.041 560.1 444.682 559.844 444.374 559.554C444.066 559.265 443.823 558.943 443.646 558.588C443.478 558.234 443.394 557.856 443.394 557.454V557.076ZM438.998 556.614H448.35V557.552H438.998V556.614ZM452.255 556.852H460.179V557.79H452.255V556.852ZM450.827 562.284H462.265V563.25H450.827V562.284ZM455.937 562.928H457.099V568.71H455.937V562.928ZM459.619 556.852H460.767V557.958C460.767 558.397 460.758 558.859 460.739 559.344C460.73 559.83 460.692 560.366 460.627 560.954C460.562 561.533 460.45 562.177 460.291 562.886L459.129 562.732C459.381 561.715 459.526 560.824 459.563 560.058C459.6 559.293 459.619 558.593 459.619 557.958V556.852Z" fill="#CDCDCD"/>
<path
  id="동구"
  class="district special"
  data-name="동구"
 d="M452.81 536.42C435.536 527.939 411.008 531.093 411.008 531.093C410.962 531.1 410.915 531.123 410.869 531.13C410.156 529.864 406.638 523.968 402.236 522.552C397.299 520.963 402.05 510.714 402.236 508.414V508.294C402.236 508.294 402.096 503.948 407.444 501.431C412.791 498.913 422.106 493.744 426.771 483.674C426.771 483.674 437.876 481.554 442.263 482.086C446.649 482.618 447.881 484.865 453.639 484.341C459.397 483.816 461.59 483.547 461.59 483.547C461.59 483.547 462.14 487.652 464.124 492.223C465.845 496.179 466.124 509.597 463.776 517.442C463.28 519.083 462.357 520.574 461.117 521.795C459.877 523.016 458.506 524.949 459.8 526.74L461.241 529.392C461.241 529.392 454.453 533.565 452.81 536.413V536.42Z" fill="#F0F0F0"/>
<path d="M425.388 511.597H436.84V512.535H425.388V511.597ZM430.54 509.567H431.674V511.989H430.54V509.567ZM426.83 509.203H435.496V510.141H426.83V509.203ZM426.83 505.941H435.412V506.865H427.978V509.763H426.83V505.941ZM431.1 513.445C432.453 513.445 433.512 513.645 434.278 514.047C435.043 514.439 435.426 514.999 435.426 515.727C435.426 516.455 435.043 517.015 434.278 517.407C433.512 517.808 432.453 518.009 431.1 518.009C429.746 518.009 428.682 517.808 427.908 517.407C427.142 517.015 426.76 516.455 426.76 515.727C426.76 514.999 427.142 514.439 427.908 514.047C428.682 513.645 429.746 513.445 431.1 513.445ZM431.086 514.355C430.432 514.355 429.868 514.411 429.392 514.523C428.925 514.625 428.566 514.779 428.314 514.985C428.062 515.181 427.936 515.428 427.936 515.727C427.936 516.016 428.062 516.263 428.314 516.469C428.566 516.674 428.925 516.828 429.392 516.931C429.868 517.043 430.432 517.099 431.086 517.099C431.758 517.099 432.327 517.043 432.794 516.931C433.27 516.828 433.634 516.674 433.886 516.469C434.138 516.263 434.264 516.016 434.264 515.727C434.264 515.428 434.138 515.181 433.886 514.985C433.634 514.779 433.27 514.625 432.794 514.523C432.327 514.411 431.758 514.355 431.086 514.355ZM439.694 506.179H447.618V507.117H439.694V506.179ZM438.266 511.611H449.704V512.577H438.266V511.611ZM443.376 512.255H444.538V518.037H443.376V512.255ZM447.058 506.179H448.206V507.285C448.206 507.723 448.197 508.185 448.178 508.671C448.169 509.156 448.132 509.693 448.066 510.281C448.001 510.859 447.889 511.503 447.73 512.213L446.568 512.059C446.82 511.041 446.965 510.15 447.002 509.385C447.04 508.619 447.058 507.919 447.058 507.285V506.179Z" fill="#CDCDCD"/>
<path
  id="서구"
  class="district special"
  data-name="서구"
 d="M391.149 506.192C390.965 508.504 386.271 518.797 391.149 520.401C396.027 522.005 399.818 529.279 399.818 529.279C394.763 530.341 387.902 536.734 385.053 544.904C382.205 553.074 385.911 553.428 392.596 561.952C399.282 570.476 397.474 575.8 397.474 575.8C395.123 578.993 397.114 585.032 398.194 592.314C399.274 599.595 396.027 603.677 389.166 605.988C382.304 608.3 385.191 614.332 387.358 623.925C389.525 633.511 382.48 634.934 377.036 637.773C371.591 640.612 370.205 639.904 366.59 634.046C362.976 628.187 362.677 607.223 362.677 607.223L377.036 596.576C376.224 589.121 375.136 570.732 375.136 570.732C364.033 563.007 365.112 550.221 365.112 550.221C365.112 550.221 362.133 534.242 353.197 534.505C344.26 534.769 342.659 529.445 342.659 529.445C342.659 529.445 342.369 529.483 341.855 529.483C342.223 529.483 342.422 529.445 342.422 529.445C342.422 529.445 343.31 528.647 343.716 524.648C344.122 520.65 352.791 517.721 352.791 517.721C352.791 517.721 352.385 508.933 355.77 504.799C359.154 500.672 359.155 488.82 359.155 488.82C366.736 489.084 374.593 488.685 374.593 488.685C383.683 496.757 391.149 506.185 391.149 506.185V506.192Z" fill="#F0F0F0"/>
<path d="M366.057 523.66H369.571V524.612H366.057V523.66ZM362.991 520.454H363.943V522.722C363.943 523.422 363.855 524.113 363.677 524.794C363.509 525.476 363.267 526.11 362.949 526.698C362.632 527.286 362.259 527.809 361.829 528.266C361.409 528.724 360.947 529.088 360.443 529.358L359.715 528.42C360.182 528.196 360.611 527.884 361.003 527.482C361.405 527.081 361.755 526.624 362.053 526.11C362.352 525.588 362.581 525.042 362.739 524.472C362.907 523.894 362.991 523.31 362.991 522.722V520.454ZM363.229 520.454H364.167V522.722C364.167 523.292 364.247 523.856 364.405 524.416C364.573 524.976 364.807 525.504 365.105 525.998C365.404 526.484 365.749 526.918 366.141 527.3C366.543 527.683 366.972 527.982 367.429 528.196L366.729 529.134C366.225 528.873 365.759 528.523 365.329 528.084C364.9 527.646 364.527 527.142 364.209 526.572C363.901 526.003 363.659 525.392 363.481 524.738C363.313 524.085 363.229 523.413 363.229 522.722V520.454ZM368.997 519.362H370.145V532.046H368.997V519.362ZM374.036 520.188H381.96V521.126H374.036V520.188ZM372.608 525.62H384.046V526.586H372.608V525.62ZM377.718 526.264H378.88V532.046H377.718V526.264ZM381.4 520.188H382.548V521.294C382.548 521.733 382.539 522.195 382.52 522.68C382.511 523.166 382.474 523.702 382.408 524.29C382.343 524.869 382.231 525.513 382.072 526.222L380.91 526.068C381.162 525.051 381.307 524.16 381.344 523.394C381.382 522.629 381.4 521.929 381.4 521.294V520.188Z" fill="#CDCDCD"/>
<path
  id="사하구"
  class="district special"
  data-name="사하구"
 d="M255.463 515.038C255.463 515.038 271.328 524.644 281.171 528.915C291.013 533.186 305.24 527.044 305.24 527.044C305.24 527.044 311.255 523.572 316.18 526.508C321.105 529.443 324.693 528.908 324.693 528.908C324.693 528.908 326.301 534.243 335.332 533.979C344.362 533.715 347.362 549.728 347.362 549.728C347.362 549.728 346.272 562.542 357.483 570.284C357.483 570.284 358.573 588.712 359.401 596.183L344.904 606.854L344.633 591.105C344.633 591.105 340.257 588.169 329.587 586.833C329.587 586.833 318.098 598.575 323.294 606.854C328.489 615.132 336.151 620.731 336.422 640.488C336.422 640.488 338.061 654.901 336.151 659.172C334.234 663.444 313.451 657.573 316.188 650.63C318.925 643.687 314.819 640.752 311.263 640.752C307.706 640.752 297.864 636.481 294.578 649.03C291.3 661.58 296.217 665.315 290.472 667.451C284.728 669.586 276.795 676.529 274.336 667.451C271.877 658.373 262.576 652.766 262.027 636.752C261.478 620.739 260.11 548.664 255.463 547.592C250.816 546.521 248.079 545.457 245.342 559.07C242.605 572.684 238.507 592.968 230.296 590.033C222.093 587.097 221.815 587.897 220.995 579.891C220.175 571.884 228.108 536.914 228.108 536.914L255.455 515.022L255.463 515.038Z" fill="#F0F0F0"/>
<path d="M282.692 572.957H283.644V575.225C283.644 575.925 283.556 576.611 283.378 577.283C283.21 577.955 282.968 578.585 282.65 579.173C282.333 579.761 281.96 580.284 281.53 580.741C281.101 581.199 280.634 581.563 280.13 581.833L279.416 580.895C279.883 580.662 280.312 580.349 280.704 579.957C281.106 579.556 281.456 579.099 281.754 578.585C282.053 578.072 282.282 577.531 282.44 576.961C282.608 576.383 282.692 575.804 282.692 575.225V572.957ZM282.902 572.957H283.84V575.225C283.84 575.785 283.92 576.341 284.078 576.891C284.246 577.442 284.48 577.96 284.778 578.445C285.077 578.931 285.418 579.365 285.8 579.747C286.192 580.13 286.612 580.433 287.06 580.657L286.346 581.581C285.852 581.329 285.394 580.984 284.974 580.545C284.564 580.107 284.2 579.607 283.882 579.047C283.574 578.478 283.332 577.871 283.154 577.227C282.986 576.574 282.902 575.907 282.902 575.225V572.957ZM288.166 571.865H289.328V584.535H288.166V571.865ZM289.062 576.989H291.4V577.983H289.062V576.989ZM301.059 571.865H302.207V584.535H301.059V571.865ZM301.941 577.073H304.279V578.053H301.941V577.073ZM292.407 573.895H299.869V574.847H292.407V573.895ZM296.201 575.883C296.799 575.883 297.326 576.009 297.783 576.261C298.25 576.513 298.614 576.859 298.875 577.297C299.146 577.727 299.281 578.226 299.281 578.795C299.281 579.365 299.146 579.869 298.875 580.307C298.614 580.746 298.25 581.091 297.783 581.343C297.326 581.586 296.799 581.707 296.201 581.707C295.604 581.707 295.072 581.586 294.605 581.343C294.148 581.091 293.784 580.746 293.513 580.307C293.243 579.869 293.107 579.365 293.107 578.795C293.107 578.226 293.243 577.727 293.513 577.297C293.784 576.859 294.148 576.513 294.605 576.261C295.072 576.009 295.604 575.883 296.201 575.883ZM296.201 576.849C295.819 576.849 295.478 576.933 295.179 577.101C294.881 577.269 294.643 577.498 294.465 577.787C294.297 578.077 294.213 578.413 294.213 578.795C294.213 579.178 294.297 579.519 294.465 579.817C294.643 580.107 294.881 580.335 295.179 580.503C295.478 580.662 295.819 580.741 296.201 580.741C296.575 580.741 296.911 580.662 297.209 580.503C297.508 580.335 297.741 580.107 297.909 579.817C298.087 579.519 298.175 579.178 298.175 578.795C298.175 578.413 298.087 578.077 297.909 577.787C297.741 577.498 297.508 577.269 297.209 577.101C296.911 576.933 296.575 576.849 296.201 576.849ZM295.599 572.019H296.761V574.315H295.599V572.019ZM306.784 572.691H314.708V573.629H306.784V572.691ZM305.356 578.123H316.794V579.089H305.356V578.123ZM310.466 578.767H311.628V584.549H310.466V578.767ZM314.148 572.691H315.296V573.797C315.296 574.236 315.287 574.698 315.268 575.183C315.259 575.669 315.222 576.205 315.156 576.793C315.091 577.372 314.979 578.016 314.82 578.725L313.658 578.571C313.91 577.554 314.055 576.663 314.092 575.897C314.13 575.132 314.148 574.432 314.148 573.797V572.691Z" fill="#CDCDCD"/>
<path
  id="사상구"
  class="district special"
  data-name="사상구"
 d="M269.03 507.272L268.52 504.921C268.165 503.271 268.752 501.576 270.05 500.476C273.249 497.763 279.052 492.436 280.234 488.615C281.872 483.288 280.504 478.217 286.794 463.297C293.083 448.37 284.607 437.708 290.07 409.458C295.533 381.209 313.853 391.065 336.261 376.138C336.261 376.138 368.002 398.924 381.122 390.394C381.122 390.394 371.556 420.384 371.147 421.447C370.737 422.509 379.484 442.636 377.707 450.231C375.93 457.827 370.598 480.349 370.598 480.349C370.598 480.349 362.671 480.749 355.021 480.485C355.021 480.485 355.021 492.345 351.606 496.475C348.191 500.604 348.6 509.405 348.6 509.405C348.6 509.405 339.854 512.336 339.444 516.337C339.034 520.338 338.138 521.137 338.138 521.137C338.138 521.137 334.553 521.672 329.631 518.741C324.709 515.81 318.698 519.276 318.698 519.276C318.698 519.276 304.488 525.41 294.644 521.145C284.808 516.88 269.022 507.287 269.022 507.287" fill="#F0F0F0"/>
<path d="M315.148 445.583H316.1V447.851C316.1 448.551 316.011 449.237 315.834 449.909C315.666 450.581 315.423 451.211 315.106 451.799C314.788 452.387 314.415 452.91 313.986 453.367C313.556 453.825 313.09 454.189 312.586 454.459L311.872 453.521C312.338 453.288 312.768 452.975 313.16 452.583C313.561 452.182 313.911 451.725 314.21 451.211C314.508 450.698 314.737 450.157 314.896 449.587C315.064 449.009 315.148 448.43 315.148 447.851V445.583ZM315.358 445.583H316.296V447.851C316.296 448.411 316.375 448.967 316.534 449.517C316.702 450.068 316.935 450.586 317.234 451.071C317.532 451.557 317.873 451.991 318.256 452.373C318.648 452.756 319.068 453.059 319.516 453.283L318.802 454.207C318.307 453.955 317.85 453.61 317.43 453.171C317.019 452.733 316.655 452.233 316.338 451.673C316.03 451.104 315.787 450.497 315.61 449.853C315.442 449.2 315.358 448.533 315.358 447.851V445.583ZM320.622 444.491H321.784V457.161H320.622V444.491ZM321.518 449.615H323.856V450.609H321.518V449.615ZM328.012 445.149H328.964V446.437C328.964 447.249 328.82 448.005 328.53 448.705C328.25 449.405 327.849 450.017 327.326 450.539C326.804 451.053 326.192 451.445 325.492 451.715L324.862 450.791C325.506 450.558 326.062 450.222 326.528 449.783C327.004 449.345 327.368 448.841 327.62 448.271C327.882 447.693 328.012 447.081 328.012 446.437V445.149ZM328.222 445.149H329.16V446.535C329.16 446.955 329.235 447.371 329.384 447.781C329.534 448.183 329.744 448.556 330.014 448.901C330.294 449.247 330.621 449.555 330.994 449.825C331.368 450.087 331.783 450.297 332.24 450.455L331.624 451.365C330.952 451.113 330.36 450.749 329.846 450.273C329.333 449.788 328.932 449.228 328.642 448.593C328.362 447.949 328.222 447.263 328.222 446.535V445.149ZM333.598 444.491H334.76V452.177H333.598V444.491ZM334.438 447.767H336.622V448.747H334.438V447.767ZM330.728 452.513C331.587 452.513 332.324 452.607 332.94 452.793C333.566 452.971 334.046 453.232 334.382 453.577C334.718 453.923 334.886 454.338 334.886 454.823C334.886 455.309 334.718 455.724 334.382 456.069C334.046 456.415 333.566 456.676 332.94 456.853C332.324 457.04 331.587 457.133 330.728 457.133C329.87 457.133 329.128 457.04 328.502 456.853C327.877 456.676 327.396 456.415 327.06 456.069C326.724 455.724 326.556 455.309 326.556 454.823C326.556 454.338 326.724 453.923 327.06 453.577C327.396 453.232 327.877 452.971 328.502 452.793C329.128 452.607 329.87 452.513 330.728 452.513ZM330.728 453.437C330.103 453.437 329.562 453.493 329.104 453.605C328.656 453.717 328.311 453.876 328.068 454.081C327.826 454.287 327.704 454.534 327.704 454.823C327.704 455.122 327.826 455.374 328.068 455.579C328.311 455.785 328.656 455.943 329.104 456.055C329.562 456.158 330.103 456.209 330.728 456.209C331.354 456.209 331.89 456.158 332.338 456.055C332.786 455.943 333.132 455.785 333.374 455.579C333.617 455.374 333.738 455.122 333.738 454.823C333.738 454.534 333.617 454.287 333.374 454.081C333.132 453.876 332.786 453.717 332.338 453.605C331.89 453.493 331.354 453.437 330.728 453.437ZM339.239 445.317H347.163V446.255H339.239V445.317ZM337.811 450.749H349.249V451.715H337.811V450.749ZM342.921 451.393H344.083V457.175H342.921V451.393ZM346.603 445.317H347.751V446.423C347.751 446.862 347.742 447.324 347.723 447.809C347.714 448.295 347.677 448.831 347.611 449.419C347.546 449.998 347.434 450.642 347.275 451.351L346.113 451.197C346.365 450.18 346.51 449.289 346.547 448.523C346.585 447.758 346.603 447.058 346.603 446.423V445.317Z" fill="#CDCDCD"/>
<path
  id="강서구"
  class="district special"
  data-name="강서구"
 d="M323.329 298C323.329 298 304.484 310.463 276.724 315.091C255.44 318.639 237.762 310.818 227.209 317.227C216.648 323.637 210.457 327.555 206.087 321.145C201.718 314.736 207.909 311.603 190.794 311.211C173.679 310.818 182.781 322.927 168.221 329.336C153.662 335.745 154.387 320.791 134.725 340.728C115.062 360.665 123.801 353.901 130.718 364.228C137.635 374.555 139.82 371.347 139.82 393.065C139.82 414.784 148.559 395.911 151.106 411.221C153.654 426.53 146.675 420.476 122.674 416.92C98.6731 413.357 87.3866 408.73 79.0106 423.329C79.0106 423.329 65.1765 430.803 52.0682 431.875C38.9599 432.947 44.7884 422.975 25.126 424.756C7.76399 426.326 8.00331 420.129 1.78111 429.444C-0.087098 432.237 -0.511683 435.725 0.630856 438.865C2.13623 442.995 4.40585 448.974 6.55197 453.594C10.1957 461.429 9.46236 462.139 18.5641 469.258C27.6658 476.377 28.0286 478.158 41.8703 478.868C55.7043 479.577 56.8006 480.295 60.8072 490.976C63.9646 499.394 67.3459 503.614 70.9588 507.464C72.8424 509.472 73.8691 512.114 73.7842 514.839L73.6298 519.731C73.5835 521.203 72.441 522.418 70.9356 522.569C67.1374 522.954 59.3403 523.785 48.5866 525.151C45.3056 525.566 42.5496 527.786 41.5306 530.866C40.5116 533.946 38.8828 538.015 36.7675 540.83C32.7609 546.168 36.0418 551.512 52.7862 555.43C68.1873 559.031 87.2785 572.869 109.218 571.751C112.438 571.585 115.294 569.675 116.714 566.844C117.895 564.497 119.771 561.673 122.558 559.741C123.137 559.341 123.948 559.62 124.156 560.284C125.461 564.542 130.093 577.511 136.523 571.819C144.166 565.048 147.447 571.457 150.358 546.892C153.168 523.226 147.524 523.679 159.637 502.413C160.617 500.692 162.354 499.499 164.346 499.19C166.585 498.843 169.765 498.609 173.193 499.152C174.274 499.326 174.999 500.345 174.806 501.402C174.096 505.176 171.996 514.107 166.739 523.037C159.822 534.784 166.376 548.319 168.924 557.574C171.471 566.829 187.127 562.557 187.127 562.557C187.127 562.557 205.331 559.711 208.249 550.093C211.159 540.483 205.338 536.565 215.891 526.948C226.452 517.338 220.076 520.893 228.814 513.948C228.814 513.948 248.207 498.193 256.12 492.048L255.61 489.693C255.255 488.04 255.842 486.341 257.139 485.239C260.335 482.522 266.132 477.184 267.313 473.357C268.95 468.02 267.584 462.939 273.868 447.992C280.151 433.037 271.683 422.356 277.141 394.054C282.599 365.753 300.902 375.627 323.29 360.672C323.29 360.672 318.921 341.181 323.29 328.626C327.66 316.072 323.29 298.008 323.29 298.008L323.329 298Z" fill="#F0F0F0"/>
<path d="M179.366 436.37H180.528V443.944H179.366V436.37ZM180.206 439.646H182.39V440.612H180.206V439.646ZM175.866 437.308H177.098C177.098 438.382 176.86 439.357 176.384 440.234C175.908 441.112 175.227 441.868 174.34 442.502C173.463 443.137 172.413 443.632 171.19 443.986L170.714 443.048C171.787 442.731 172.707 442.316 173.472 441.802C174.237 441.289 174.825 440.696 175.236 440.024C175.656 439.352 175.866 438.62 175.866 437.826V437.308ZM171.26 437.308H176.524V438.26H171.26V437.308ZM176.552 444.098C177.392 444.098 178.12 444.196 178.736 444.392C179.352 444.588 179.828 444.873 180.164 445.246C180.5 445.61 180.668 446.049 180.668 446.562C180.668 447.066 180.5 447.5 180.164 447.864C179.828 448.228 179.352 448.508 178.736 448.704C178.12 448.91 177.392 449.012 176.552 449.012C175.721 449.012 174.993 448.91 174.368 448.704C173.752 448.508 173.271 448.228 172.926 447.864C172.59 447.5 172.422 447.066 172.422 446.562C172.422 446.049 172.59 445.61 172.926 445.246C173.271 444.873 173.752 444.588 174.368 444.392C174.993 444.196 175.721 444.098 176.552 444.098ZM176.552 445.022C175.955 445.022 175.432 445.088 174.984 445.218C174.536 445.34 174.186 445.517 173.934 445.75C173.691 445.974 173.57 446.245 173.57 446.562C173.57 446.87 173.691 447.141 173.934 447.374C174.186 447.598 174.536 447.776 174.984 447.906C175.432 448.028 175.955 448.088 176.552 448.088C177.168 448.088 177.695 448.028 178.134 447.906C178.573 447.776 178.913 447.598 179.156 447.374C179.408 447.141 179.534 446.87 179.534 446.562C179.534 446.245 179.408 445.974 179.156 445.75C178.913 445.517 178.573 445.34 178.134 445.218C177.695 445.088 177.168 445.022 176.552 445.022ZM189.907 440.668H193.421V441.62H189.907V440.668ZM186.841 437.462H187.793V439.73C187.793 440.43 187.704 441.121 187.527 441.802C187.359 442.484 187.116 443.118 186.799 443.706C186.482 444.294 186.108 444.817 185.679 445.274C185.259 445.732 184.797 446.096 184.293 446.366L183.565 445.428C184.032 445.204 184.461 444.892 184.853 444.49C185.254 444.089 185.604 443.632 185.903 443.118C186.202 442.596 186.43 442.05 186.589 441.48C186.757 440.902 186.841 440.318 186.841 439.73V437.462ZM187.079 437.462H188.017V439.73C188.017 440.3 188.096 440.864 188.255 441.424C188.423 441.984 188.656 442.512 188.955 443.006C189.254 443.492 189.599 443.926 189.991 444.308C190.392 444.691 190.822 444.99 191.279 445.204L190.579 446.142C190.075 445.881 189.608 445.531 189.179 445.092C188.75 444.654 188.376 444.15 188.059 443.58C187.751 443.011 187.508 442.4 187.331 441.746C187.163 441.093 187.079 440.421 187.079 439.73V437.462ZM192.847 436.37H193.995V449.054H192.847V436.37ZM197.886 437.196H205.81V438.134H197.886V437.196ZM196.458 442.628H207.896V443.594H196.458V442.628ZM201.568 443.272H202.73V449.054H201.568V443.272ZM205.25 437.196H206.398V438.302C206.398 438.741 206.388 439.203 206.37 439.688C206.36 440.174 206.323 440.71 206.258 441.298C206.192 441.877 206.08 442.521 205.922 443.23L204.76 443.076C205.012 442.059 205.156 441.168 205.194 440.402C205.231 439.637 205.25 438.937 205.25 438.302V437.196Z" fill="#CDCDCD"/>
<g id="수영구">
  <path
    class="district special gu-shape"
    data-name="수영구"
  d="M562.944 417.069L571.832 416.001C573.298 418.407 582.5 424.494 589 435.994C590 442.994 598.245 462.22 598.245 462.22C598.245 462.22 597.931 461.682 587.583 463.022C577.234 464.356 580.014 467.908 576.889 477.353C573.764 486.798 566.603 490.298 566.603 490.298C563.784 488.662 559.741 488.306 558.5 487.874C557.259 487.442 549.471 483.587 547.39 474.21C545.309 464.833 544.618 457.061 536.005 454.782C536.005 454.782 535.723 447.874 539.334 443.322C542.946 438.769 536.696 432.202 545.584 428.453C554.472 424.704 554.056 418.137 562.944 417.069Z"/>
</svg>
